<?xml version="1.0" encoding="utf-8"?>
<!-- Generator: Adobe Illustrator 13.0.0, SVG Export Plug-In . SVG Version: 6.00 Build 14948)  -->
<!DOCTYPE svg PUBLIC "-//W3C//DTD SVG 1.1//EN" "http://www.w3.org/Graphics/SVG/1.1/DTD/svg11.dtd">
<svg version="1.1" id="Layer_1" xmlns="http://www.w3.org/2000/svg" xmlns:xlink="http://www.w3.org/1999/xlink" x="0px" y="0px"
	 width="306.949px" height="342.333px" viewBox="0 0 306.949 342.333" enable-background="new 0 0 306.949 342.333"
	 xml:space="preserve">
<rect fill="#F2F2F2" width="143.949" height="342.333"/>
<line fill="none" stroke="#000000" stroke-linecap="round" stroke-linejoin="round" stroke-miterlimit="10" x1="30.043" y1="186.087" x2="30.043" y2="190.746"/>
<path fill="none" stroke="#000000" stroke-linecap="round" stroke-linejoin="round" stroke-miterlimit="10" d="M30.043,187.052
	c-0.421-0.904-1.329-1.48-2.326-1.48c-1.419,0-2.569,1.15-2.569,2.564c0,1.418,1.15,2.568,2.569,2.568
	c0.997,0,1.905-0.578,2.326-1.482"/>
<path fill="none" stroke="#000000" stroke-linecap="round" stroke-linejoin="round" stroke-miterlimit="10" d="M36.333,186.505
	c-0.488-0.592-1.216-0.934-1.981-0.934c-1.417,0-2.568,1.15-2.568,2.564c0,1.418,1.151,2.568,2.568,2.568
	c0.766,0,1.493-0.344,1.981-0.934"/>
<line fill="none" stroke="#000000" stroke-linecap="round" stroke-linejoin="round" stroke-miterlimit="10" x1="64.243" y1="182.22" x2="64.243" y2="190.349"/>
<path fill="none" stroke="#000000" stroke-linecap="round" stroke-linejoin="round" stroke-miterlimit="10" d="M64.243,189.222
	c0.421,0.904,1.328,1.482,2.326,1.482c1.418,0,2.568-1.15,2.568-2.568c0-1.414-1.15-2.564-2.568-2.564
	c-0.998,0-1.905,0.576-2.326,1.48"/>
<line fill="none" stroke="#000000" stroke-linecap="round" stroke-linejoin="round" stroke-miterlimit="10" x1="38.209" y1="182.121" x2="38.209" y2="190.646"/>
<line fill="none" stroke="#000000" stroke-linecap="round" stroke-linejoin="round" stroke-miterlimit="10" x1="42.969" y1="185.095" x2="38.209" y2="189.06"/>
<line fill="none" stroke="#000000" stroke-linecap="round" stroke-linejoin="round" stroke-miterlimit="10" x1="43.008" y1="190.646" x2="40.23" y2="187.376"/>
<line fill="none" stroke="#000000" stroke-linecap="round" stroke-linejoin="round" stroke-miterlimit="10" x1="62.101" y1="182.121" x2="62.101" y2="190.646"/>
<line fill="none" stroke="#000000" stroke-linecap="round" stroke-linejoin="round" stroke-miterlimit="10" x1="18.48" y1="182.121" x2="18.48" y2="190.646"/>
<path fill="none" stroke="#000000" stroke-linecap="round" stroke-linejoin="round" stroke-miterlimit="10" d="M18.48,186.951
	c0.422-0.906,1.329-1.482,2.328-1.482c1.417,0,2.568,1.15,2.568,2.566l0,0v2.566"/>
<line fill="none" stroke="#000000" stroke-linecap="round" stroke-linejoin="round" stroke-miterlimit="10" x1="44.985" y1="185.988" x2="44.985" y2="190.646"/>
<path fill="none" stroke="#000000" stroke-linecap="round" stroke-linejoin="round" stroke-miterlimit="10" d="M49.05,190.585V187.5
	c0-1.121-0.91-2.031-2.032-2.031c-1.123,0-2.032,0.91-2.032,2.031l0,0"/>
<path fill="none" stroke="#000000" stroke-linecap="round" stroke-linejoin="round" stroke-miterlimit="10" d="M53.116,190.585
	V187.5c0-1.121-0.911-2.031-2.033-2.031c-1.123,0-2.033,0.91-2.033,2.031l0,0"/>
<path fill="none" stroke="#000000" stroke-linecap="round" stroke-linejoin="round" stroke-miterlimit="10" d="M76.152,188.054
	c0-1.418-1.149-2.568-2.567-2.568c-1.417,0-2.568,1.15-2.568,2.568c0,1.414,1.151,2.564,2.568,2.564
	C75.003,190.619,76.152,189.468,76.152,188.054"/>
<path fill="none" stroke="#000000" stroke-linecap="round" stroke-linejoin="round" stroke-miterlimit="10" d="M112.664,188.054
	c0-1.418-1.15-2.568-2.568-2.568c-1.417,0-2.567,1.15-2.567,2.568c0,1.414,1.15,2.564,2.567,2.564
	C111.514,190.619,112.664,189.468,112.664,188.054"/>
<line fill="none" stroke="#000000" stroke-linecap="round" stroke-linejoin="round" stroke-miterlimit="10" x1="91.214" y1="185.988" x2="91.214" y2="190.646"/>
<path fill="none" stroke="#000000" stroke-linecap="round" stroke-linejoin="round" stroke-miterlimit="10" d="M91.214,186.951
	c0.421-0.906,1.329-1.482,2.327-1.482c1.417,0,2.567,1.15,2.567,2.566l0,0v2.566"/>
<path fill="none" stroke="#000000" stroke-linecap="round" stroke-linejoin="round" stroke-miterlimit="10" d="M59.607,189.64
	c-0.482,0.668-1.258,1.064-2.082,1.064c-1.418,0-2.567-1.15-2.567-2.568c0-1.414,1.149-2.564,2.567-2.564
	c1.335,0,2.448,1.021,2.56,2.352l0,0h-5.118"/>
<path fill="none" stroke="#000000" stroke-linecap="round" stroke-linejoin="round" stroke-miterlimit="10" d="M102.563,189.64
	c-0.481,0.668-1.257,1.064-2.082,1.064c-1.417,0-2.567-1.15-2.567-2.568c0-1.414,1.15-2.564,2.567-2.564
	c1.335,0,2.447,1.021,2.56,2.352l0,0h-5.118"/>
<line fill="none" stroke="#000000" stroke-linecap="round" stroke-linejoin="round" stroke-miterlimit="10" x1="84.806" y1="190.646" x2="84.806" y2="185.988"/>
<path fill="none" stroke="#000000" stroke-linecap="round" stroke-linejoin="round" stroke-miterlimit="10" d="M89.253,186.333
	c-0.52-0.553-1.244-0.865-2.003-0.865c-1.03,0-1.974,0.574-2.444,1.492"/>
<line fill="none" stroke="#000000" stroke-linecap="round" stroke-linejoin="round" stroke-miterlimit="10" x1="114.629" y1="190.646" x2="114.629" y2="185.988"/>
<path fill="none" stroke="#000000" stroke-linecap="round" stroke-linejoin="round" stroke-miterlimit="10" d="M119.078,186.333
	c-0.52-0.553-1.246-0.865-2.004-0.865c-1.028,0-1.975,0.574-2.445,1.492"/>
<line fill="none" stroke="#000000" stroke-linecap="round" stroke-linejoin="round" stroke-miterlimit="10" x1="105.405" y1="190.511" x2="105.405" y2="189.88"/>
<line fill="none" stroke="#000000" stroke-linecap="round" stroke-linejoin="round" stroke-miterlimit="10" x1="82.527" y1="185.492" x2="82.527" y2="190.052"/>
<path fill="none" stroke="#000000" stroke-linecap="round" stroke-linejoin="round" stroke-miterlimit="10" d="M77.834,185.468
	v2.787c0,1.297,1.052,2.346,2.348,2.346c1.295,0,2.346-1.049,2.346-2.346l0,0"/>
<path fill="none" stroke="#000000" stroke-linecap="round" stroke-linejoin="round" stroke-miterlimit="10" d="M125.469,187.052
	c-0.423-0.902-1.33-1.48-2.327-1.48c-1.418,0-2.569,1.15-2.569,2.566c0,1.418,1.151,2.566,2.569,2.566
	c0.997,0,1.904-0.578,2.327-1.482"/>
<path fill="none" stroke="#000000" stroke-linecap="round" stroke-linejoin="round" stroke-miterlimit="10" d="M120.572,193.072
	c0.423,0.904,1.329,1.484,2.327,1.484c1.42,0,2.569-1.15,2.569-2.568l0,0V186"/>
<g>
	
		<polyline fill="none" stroke="#000000" stroke-width="1.0148" stroke-linecap="round" stroke-linejoin="round" stroke-miterlimit="10" points="
		64.038,32.326 60.447,32.326 60.447,26.735 64.038,26.735 	"/>
	
		<line fill="none" stroke="#000000" stroke-width="1.0148" stroke-linecap="round" stroke-linejoin="round" stroke-miterlimit="10" x1="60.447" y1="29.253" x2="62.978" y2="29.253"/>
	
		<polyline fill="none" stroke="#000000" stroke-width="1.0148" stroke-linecap="round" stroke-linejoin="round" stroke-miterlimit="10" points="
		46.949,32.326 43.362,32.326 43.362,26.735 46.949,26.735 	"/>
	
		<line fill="none" stroke="#000000" stroke-width="1.0148" stroke-linecap="round" stroke-linejoin="round" stroke-miterlimit="10" x1="43.362" y1="29.253" x2="45.89" y2="29.253"/>
	
		<polyline fill="none" stroke="#000000" stroke-width="1.0148" stroke-linecap="round" stroke-linejoin="round" stroke-miterlimit="10" points="
		31.016,32.326 31.016,26.735 34.932,32.326 34.932,26.735 	"/>
	
		<polyline fill="none" stroke="#000000" stroke-width="1.0148" stroke-linecap="round" stroke-linejoin="round" stroke-miterlimit="10" points="
		37.211,32.326 37.211,26.735 41.126,32.326 41.126,26.735 	"/>
	
		<line fill="none" stroke="#000000" stroke-width="1.0148" stroke-linecap="round" stroke-linejoin="round" stroke-miterlimit="10" x1="53.958" y1="26.754" x2="58.429" y2="26.754"/>
	
		<line fill="none" stroke="#000000" stroke-width="1.0148" stroke-linecap="round" stroke-linejoin="round" stroke-miterlimit="10" x1="56.194" y1="26.754" x2="56.194" y2="32.326"/>
	
		<path fill="none" stroke="#000000" stroke-width="1.0148" stroke-linecap="round" stroke-linejoin="round" stroke-miterlimit="10" d="
		M22.836,27.544c-0.381-0.509-0.978-0.809-1.613-0.809c-0.637,0-1.234,0.3-1.615,0.809l0,0c-0.429,0.573-0.661,1.271-0.661,1.987
		c0,0.715,0.232,1.412,0.661,1.984l0,0c0.381,0.512,0.979,0.811,1.615,0.811c0.636,0,1.232-0.299,1.613-0.811l0,0"/>
	
		<path fill="none" stroke="#000000" stroke-width="1.0148" stroke-linecap="round" stroke-linejoin="round" stroke-miterlimit="10" d="
		M52.452,27.544c-0.381-0.509-0.979-0.809-1.615-0.809s-1.234,0.3-1.615,0.809l0,0c-0.428,0.573-0.661,1.271-0.661,1.987
		c0,0.715,0.233,1.412,0.661,1.984l0,0c0.381,0.512,0.979,0.811,1.615,0.811s1.234-0.299,1.615-0.811l0,0"/>
	
		<path fill="none" stroke="#000000" stroke-width="1.0148" stroke-linecap="round" stroke-linejoin="round" stroke-miterlimit="10" d="
		M67.841,26.735h-1.655v5.591h1.655c0.642,0,1.241-0.322,1.594-0.861l0,0c0.38-0.574,0.58-1.248,0.58-1.934
		c0-0.689-0.2-1.361-0.58-1.936l0,0C69.082,27.057,68.482,26.735,67.841,26.735L67.841,26.735z"/>
	
		<path fill="none" stroke="#000000" stroke-width="1.0148" stroke-linecap="round" stroke-linejoin="round" stroke-miterlimit="10" d="
		M28.52,27.57c-0.368-0.525-0.968-0.835-1.607-0.835c-0.638,0-1.238,0.31-1.608,0.835l0,0c-0.399,0.574-0.619,1.259-0.619,1.961
		c0,0.701,0.22,1.386,0.619,1.96l0,0c0.37,0.522,0.971,0.835,1.608,0.835c0.64,0,1.239-0.313,1.607-0.835l0,0
		c0.401-0.574,0.619-1.259,0.619-1.96C29.139,28.829,28.921,28.145,28.52,27.57L28.52,27.57z"/>
	
		<line fill="none" stroke="#000000" stroke-width="1.0148" stroke-linecap="round" stroke-linejoin="round" stroke-miterlimit="10" x1="112.257" y1="32.326" x2="112.257" y2="26.754"/>
	
		<polyline fill="none" stroke="#000000" stroke-width="1.0148" stroke-linecap="round" stroke-linejoin="round" stroke-miterlimit="10" points="
		86.839,32.326 86.839,26.735 89.078,30.494 91.316,26.735 91.316,32.326 	"/>
	
		<polyline fill="none" stroke="#000000" stroke-width="1.0148" stroke-linecap="round" stroke-linejoin="round" stroke-miterlimit="10" points="
		93.565,32.326 93.565,26.735 95.802,30.494 98.04,26.735 98.04,32.326 	"/>
	
		<polyline fill="none" stroke="#000000" stroke-width="1.0148" stroke-linecap="round" stroke-linejoin="round" stroke-miterlimit="10" points="
		106.023,32.326 106.023,26.735 109.94,32.326 109.94,26.735 	"/>
	
		<line fill="none" stroke="#000000" stroke-width="1.0148" stroke-linecap="round" stroke-linejoin="round" stroke-miterlimit="10" x1="114.231" y1="26.754" x2="118.702" y2="26.754"/>
	
		<line fill="none" stroke="#000000" stroke-width="1.0148" stroke-linecap="round" stroke-linejoin="round" stroke-miterlimit="10" x1="116.467" y1="26.754" x2="116.467" y2="32.326"/>
	
		<polyline fill="none" stroke="#000000" stroke-width="1.0148" stroke-linecap="round" stroke-linejoin="round" stroke-miterlimit="10" points="
		120.412,26.724 122.648,29.799 124.884,26.724 	"/>
	
		<line fill="none" stroke="#000000" stroke-width="1.0148" stroke-linecap="round" stroke-linejoin="round" stroke-miterlimit="10" x1="122.648" y1="32.326" x2="122.648" y2="29.799"/>
	
		<path fill="none" stroke="#000000" stroke-width="1.0148" stroke-linecap="round" stroke-linejoin="round" stroke-miterlimit="10" d="
		M103.985,26.735v3.657c0,1.068-0.869,1.934-1.934,1.934c-1.068,0-1.935-0.865-1.935-1.934l0,0v-3.657"/>
	
		<path fill="none" stroke="#000000" stroke-width="1.0148" stroke-linecap="round" stroke-linejoin="round" stroke-miterlimit="10" d="
		M78.597,27.544c-0.378-0.509-0.978-0.809-1.614-0.809c-0.634,0-1.233,0.3-1.613,0.809l0,0c-0.43,0.573-0.66,1.271-0.66,1.987
		c0,0.715,0.23,1.412,0.66,1.984l0,0c0.38,0.512,0.979,0.811,1.613,0.811c0.637,0,1.236-0.299,1.614-0.811l0,0"/>
	
		<path fill="none" stroke="#000000" stroke-width="1.0148" stroke-linecap="round" stroke-linejoin="round" stroke-miterlimit="10" d="
		M84.28,27.57c-0.366-0.525-0.967-0.835-1.606-0.835s-1.237,0.31-1.605,0.835l0,0c-0.406,0.574-0.621,1.259-0.621,1.961
		c0,0.701,0.215,1.386,0.621,1.96l0,0c0.368,0.522,0.966,0.835,1.605,0.835s1.24-0.313,1.606-0.835l0,0
		c0.403-0.574,0.618-1.259,0.618-1.96C84.898,28.829,84.684,28.145,84.28,27.57L84.28,27.57z"/>
</g>
<g>
	
		<polyline fill="none" stroke="#000000" stroke-width="2" stroke-linecap="round" stroke-linejoin="round" stroke-miterlimit="10" points="
		125.003,46.658 118.708,46.658 118.708,36.851 125.003,36.851 	"/>
	
		<line fill="none" stroke="#000000" stroke-width="2" stroke-linecap="round" stroke-linejoin="round" stroke-miterlimit="10" x1="118.708" y1="41.269" x2="123.141" y2="41.269"/>
	
		<polyline fill="none" stroke="#000000" stroke-width="2" stroke-linecap="round" stroke-linejoin="round" stroke-miterlimit="10" points="
		66.646,46.658 60.353,46.658 60.353,36.851 66.646,36.851 	"/>
	
		<line fill="none" stroke="#000000" stroke-width="2" stroke-linecap="round" stroke-linejoin="round" stroke-miterlimit="10" x1="60.353" y1="41.269" x2="64.785" y2="41.269"/>
	
		<line fill="none" stroke="#000000" stroke-width="2" stroke-linecap="round" stroke-linejoin="round" stroke-miterlimit="10" x1="19.545" y1="36.885" x2="19.545" y2="46.658"/>
	
		<line fill="none" stroke="#000000" stroke-width="2" stroke-linecap="round" stroke-linejoin="round" stroke-miterlimit="10" x1="26.25" y1="46.658" x2="26.25" y2="36.885"/>
	
		<line fill="none" stroke="#000000" stroke-width="2" stroke-linecap="round" stroke-linejoin="round" stroke-miterlimit="10" x1="19.545" y1="41.203" x2="26.25" y2="41.203"/>
	
		<line fill="none" stroke="#000000" stroke-width="2" stroke-linecap="round" stroke-linejoin="round" stroke-miterlimit="10" x1="99.825" y1="43.827" x2="104.597" y2="43.827"/>
	
		<polyline fill="none" stroke="#000000" stroke-width="2" stroke-linecap="round" stroke-linejoin="round" stroke-miterlimit="10" points="
		98.304,46.658 102.229,36.851 106.153,46.658 	"/>
	
		<line fill="none" stroke="#000000" stroke-width="2" stroke-linecap="round" stroke-linejoin="round" stroke-miterlimit="10" x1="30.981" y1="43.827" x2="35.756" y2="43.827"/>
	
		<polyline fill="none" stroke="#000000" stroke-width="2" stroke-linecap="round" stroke-linejoin="round" stroke-miterlimit="10" points="
		29.463,46.658 33.388,36.851 37.313,46.658 	"/>
	
		<line fill="none" stroke="#000000" stroke-width="2" stroke-linecap="round" stroke-linejoin="round" stroke-miterlimit="10" x1="76.804" y1="46.641" x2="74.302" y2="41.754"/>
	<path fill="none" stroke="#000000" stroke-width="2" stroke-linecap="round" stroke-linejoin="round" stroke-miterlimit="10" d="
		M70.271,46.658v-9.808h4.031c1.353,0,2.453,1.099,2.453,2.451c0,1.354-1.101,2.452-2.453,2.452l0,0h-4.031"/>
	<path fill="none" stroke="#000000" stroke-width="2" stroke-linecap="round" stroke-linejoin="round" stroke-miterlimit="10" d="
		M90.468,46.658v-9.808H94.5c1.354,0,2.451,1.099,2.451,2.451c0,1.354-1.097,2.452-2.451,2.452l0,0h-4.032"/>
	<path fill="none" stroke="#000000" stroke-width="2" stroke-linecap="round" stroke-linejoin="round" stroke-miterlimit="10" d="
		M115.234,38.27c-0.669-0.895-1.718-1.419-2.833-1.419c-1.113,0-2.162,0.524-2.83,1.419l0,0c-0.753,1.006-1.159,2.228-1.159,3.484
		c0,1.258,0.406,2.479,1.159,3.484l0,0c0.668,0.893,1.717,1.42,2.83,1.42c1.115,0,2.164-0.527,2.833-1.42l0,0"/>
	<path fill="none" stroke="#000000" stroke-width="2" stroke-linecap="round" stroke-linejoin="round" stroke-miterlimit="10" d="
		M46.391,38.27c-0.668-0.895-1.715-1.419-2.83-1.419s-2.164,0.524-2.83,1.419l0,0c-0.753,1.006-1.16,2.228-1.16,3.484
		c0,1.258,0.407,2.479,1.16,3.484l0,0c0.666,0.893,1.715,1.42,2.83,1.42s2.162-0.527,2.83-1.42l0,0"/>
	
		<line fill="none" stroke="#000000" stroke-width="2" stroke-linecap="round" stroke-linejoin="round" stroke-miterlimit="10" x1="50.246" y1="36.885" x2="50.246" y2="46.658"/>
	
		<line fill="none" stroke="#000000" stroke-width="2" stroke-linecap="round" stroke-linejoin="round" stroke-miterlimit="10" x1="50.246" y1="42.793" x2="56.609" y2="36.885"/>
	
		<line fill="none" stroke="#000000" stroke-width="2" stroke-linecap="round" stroke-linejoin="round" stroke-miterlimit="10" x1="56.723" y1="46.658" x2="51.835" y2="41.316"/>
	<path fill="none" stroke="#000000" stroke-width="2" stroke-linecap="round" stroke-linejoin="round" stroke-miterlimit="10" d="
		M86.384,38.225c-0.125-0.249-0.31-0.462-0.536-0.623l0,0c-0.681-0.489-1.498-0.751-2.336-0.751s-1.654,0.262-2.336,0.751h-0.002
		c-0.457,0.328-0.729,0.857-0.729,1.422c0,0.566,0.271,1.096,0.729,1.422h0.002c0.481,0.346,1.034,0.58,1.617,0.688l0,0l1.599,0.291
		c0.713,0.131,1.387,0.416,1.976,0.838l0,0c0.561,0.401,0.893,1.049,0.893,1.74c0,0.688-0.332,1.338-0.893,1.738l0,0
		c-0.832,0.597-1.831,0.918-2.855,0.918c-1.022,0-2.022-0.321-2.856-0.918l0,0c-0.274-0.198-0.498-0.46-0.657-0.762l0,0"/>
</g>
<path fill="none" stroke="#000000" stroke-linecap="round" stroke-linejoin="round" stroke-miterlimit="10" d="M97.729,161.014
	h-4.213c0-0.805,0.379-1.56,1.023-2.04l0,0c0.236-0.178,0.491-0.328,0.76-0.451l0,0l1.314-0.604c0.168-0.077,0.329-0.176,0.477-0.29
	l0,0c0.285-0.226,0.452-0.569,0.452-0.933c0-0.364-0.167-0.708-0.452-0.933l0,0c-0.419-0.328-0.937-0.507-1.467-0.507
	c-0.533,0-1.049,0.179-1.468,0.507l0,0c-0.285,0.225-0.453,0.568-0.453,0.933l0,0"/>
<path fill="none" stroke="#000000" stroke-linecap="round" stroke-linejoin="round" stroke-miterlimit="10" d="M102.981,156.141
	c-0.364-0.553-0.982-0.886-1.644-0.886c-0.662,0-1.28,0.333-1.644,0.886l0,0c-0.39,0.592-0.597,1.285-0.597,1.993
	s0.207,1.401,0.597,1.993l0,0c0.363,0.554,0.981,0.887,1.644,0.887c0.661,0,1.279-0.333,1.644-0.887l0,0
	c0.389-0.592,0.596-1.285,0.596-1.993S103.37,156.732,102.981,156.141L102.981,156.141z"/>
<path fill="none" stroke="#000000" stroke-linecap="round" stroke-linejoin="round" stroke-miterlimit="10" d="M109.135,156.141
	c-0.363-0.553-0.981-0.886-1.644-0.886c-0.661,0-1.279,0.333-1.644,0.886l0,0c-0.389,0.592-0.596,1.285-0.596,1.993
	s0.207,1.401,0.596,1.993l0,0c0.364,0.554,0.982,0.887,1.644,0.887c0.662,0,1.28-0.333,1.644-0.887l0,0
	c0.39-0.592,0.598-1.285,0.598-1.993S109.524,156.732,109.135,156.141L109.135,156.141z"/>
<g>
	<path fill="none" stroke="#000000" stroke-linecap="round" stroke-linejoin="round" stroke-miterlimit="10" d="M115.197,157.151
		c0-1.047-0.849-1.896-1.896-1.896s-1.897,0.85-1.897,1.896c0,1.046,0.851,1.896,1.897,1.896S115.197,158.197,115.197,157.151"/>
	<path fill="none" stroke="#000000" stroke-linecap="round" stroke-linejoin="round" stroke-miterlimit="10" d="M111.658,160.127
		c0.363,0.554,0.981,0.887,1.644,0.887s1.28-0.333,1.644-0.887l0,0c0.39-0.592,0.597-1.285,0.597-1.993s-0.207-1.401-0.597-1.993
		l0,0c-0.363-0.553-0.981-0.886-1.644-0.886"/>
</g>
<path d="M119.944,65.301c-2.858,0-5.565,1.283-7.374,3.493c-12.746-5.805-26.589-8.809-40.595-8.809
	c-14.007,0-27.851,3.004-40.596,8.809c-1.811-2.21-4.518-3.493-7.375-3.493c-5.26,0-9.529,4.268-9.529,9.527
	c0,4.667,3.382,8.646,7.989,9.4h-0.001c0.883,9.148,3.051,18.125,6.438,26.669c-1.881,4.261-2.852,8.866-2.852,13.524
	c0,2.519,0.283,5.029,0.847,7.484c0.151,0.662,0.633,1.203,1.273,1.433c3.657,1.302,7.511,1.968,11.393,1.968
	c1.084,0,2.167-0.053,3.248-0.156c5.786,7.394,12.605,13.918,20.249,19.369l0,0c-0.406,1.076-0.615,2.219-0.615,3.369
	c0,5.258,4.27,9.525,9.531,9.525c5.26,0,9.528-4.268,9.528-9.525c0-1.15-0.208-2.293-0.613-3.369l0,0
	c7.643-5.451,14.463-11.976,20.249-19.369c1.078,0.104,2.162,0.156,3.248,0.156c3.881,0,7.734-0.666,11.391-1.968
	c0.642-0.229,1.122-0.771,1.272-1.433c0.564-2.455,0.849-4.966,0.849-7.484c0-4.658-0.971-9.264-2.851-13.524
	c3.385-8.544,5.551-17.521,6.437-26.669l0,0c4.607-0.755,7.989-4.733,7.989-9.4C129.475,69.568,125.204,65.301,119.944,65.301z
	 M78.727,151.166c-1.787-1.795-4.217-2.805-6.751-2.805c-2.536,0-4.967,1.01-6.755,2.805c-6.673-4.779-12.69-10.414-17.897-16.76
	c1.229-0.288,2.441-0.645,3.631-1.068c0.642-0.229,1.121-0.77,1.273-1.432l0,0c0.563-2.456,0.847-4.966,0.847-7.484
	c0-1.082-0.052-2.162-0.156-3.238c0.861,0.18,1.729,0.325,2.602,0.436v10.356c0,3.34,2.712,6.051,6.053,6.051h20.805
	c3.341,0,6.054-2.711,6.054-6.051v-10.356c0.872-0.11,1.74-0.256,2.6-0.436c-0.104,1.076-0.158,2.156-0.158,3.238
	c0,2.519,0.287,5.028,0.848,7.484c0.154,0.662,0.632,1.203,1.275,1.432c1.19,0.424,2.401,0.78,3.632,1.068
	C91.419,140.752,85.401,146.387,78.727,151.166z M115.206,97.365c-0.085-0.219-0.177-0.438-0.271-0.652
	c-1.843-4.178-5.983-6.873-10.548-6.873c-4.321,0-8.278,2.414-10.253,6.256c-0.225-0.453-0.459-0.897-0.703-1.338
	c1.444-1.975,2.223-4.357,2.223-6.803c0-6.362-5.165-11.526-11.53-11.526c-6.362,0-11.529,5.164-11.529,11.526
	c0,2.445,0.778,4.828,2.225,6.803c-1.195,2.154-2.149,4.434-2.844,6.796l0,0c-0.696-2.362-1.652-4.642-2.843-6.796l0,0
	c1.443-1.975,2.222-4.357,2.222-6.803c0-6.362-5.167-11.526-11.531-11.526c-1.241,0-2.475,0.201-3.654,0.595
	c-1.444-3.131-4.578-5.136-8.025-5.136c-4.879,0-8.84,3.958-8.84,8.837c0,3.332,1.877,6.383,4.853,7.887l0,0
	c0.278,0.141,0.587,0.214,0.899,0.214c1.1,0,1.992-0.893,1.992-1.993c0-0.459-0.159-0.905-0.451-1.26l0,0
	c-0.35-0.428-0.54-0.963-0.54-1.514c0-1.318,1.07-2.389,2.39-2.389c0.512,0,1.011,0.164,1.424,0.47l0,0
	c-1.031,1.765-1.576,3.772-1.576,5.815c0,2.445,0.779,4.828,2.223,6.803l0,0c-0.243,0.44-0.477,0.885-0.702,1.338
	c-1.976-3.842-5.933-6.256-10.252-6.256c-4.829,0-9.146,3.008-10.817,7.536c-1.086-4.386-1.852-8.845-2.295-13.341
	c4.176-1.107,7.084-4.889,7.084-9.207c0-0.841-0.111-1.677-0.33-2.487c12.18-5.517,25.398-8.371,38.771-8.371
	c13.372,0,26.59,2.854,38.77,8.371V72.34c-0.22,0.812-0.33,1.647-0.33,2.488c0,4.318,2.907,8.1,7.084,9.207
	C117.056,88.527,116.289,92.982,115.206,97.365z"/>
<path fill="#FFFFFF" d="M74.587,87.955c0-5.264,4.273-9.534,9.535-9.534c5.268,0,9.539,4.271,9.539,9.534l0,0
	c0,3.695-2.136,7.058-5.481,8.631l0,0c-0.16-0.617-0.615-1.112-1.216-1.32l0,0c-0.912-0.318-1.874-0.479-2.842-0.479
	c-0.963,0-1.925,0.16-2.836,0.479l0,0c-0.6,0.208-1.057,0.703-1.214,1.32l0,0C76.725,95.013,74.587,91.65,74.587,87.955
	L74.587,87.955z"/>
<path d="M80.487,92.541c-0.154-0.089-0.251-0.253-0.251-0.431c0-0.275,0.224-0.499,0.499-0.499c0.088,0,0.174,0.023,0.248,0.067l0,0
	c0.957,0.551,2.039,0.842,3.139,0.842c1.104,0,2.188-0.291,3.145-0.842l0,0c0.074-0.044,0.159-0.067,0.247-0.067
	c0.275,0,0.499,0.224,0.499,0.499c0,0.178-0.096,0.342-0.249,0.431l0,0c-1.106,0.64-2.362,0.976-3.642,0.976
	C82.848,93.517,81.593,93.181,80.487,92.541L80.487,92.541z"/>
<path fill="#FFFFFF" d="M94.852,101.367c0-1.382,0.299-2.745,0.878-3.998l0,0c1.521,0.939,3.273,1.437,5.061,1.437
	c1.521,0,3.017-0.358,4.371-1.048l0,0c0.172-0.088,0.364-0.134,0.558-0.134c0.678,0,1.23,0.55,1.23,1.228h-0.002v7.097
	c0,1.601-0.197,3.194-0.589,4.747l0,0c-0.648,0.136-1.309,0.205-1.971,0.205C99.122,110.9,94.852,106.629,94.852,101.367
	L94.852,101.367z"/>
<path fill="#FFFFFF" d="M50.588,90.33c0.097,0.004,0.19,0.006,0.287,0.006c3.108,0,5.7-2.373,5.974-5.468l0,0
	c1.639,1.005,3.523,1.537,5.444,1.537c2.286,0,4.509-0.753,6.324-2.142l0,0c0.491,1.169,0.744,2.424,0.744,3.691l0,0
	c0,5.262-4.274,9.534-9.538,9.534C55.472,97.489,51.672,94.543,50.588,90.33L50.588,90.33z"/>
<path fill="#FFFFFF" d="M43.231,99.344c-0.736-1.336-2.143-2.166-3.669-2.166c-1.638,0-3.126,0.953-3.808,2.441l0,0l-5.106-1.642
	c1.407-3.7,4.954-6.146,8.914-6.146c3.75,0,7.151,2.197,8.692,5.615l0,0c-0.461-0.179-0.953-0.27-1.447-0.27
	C45.305,97.178,43.927,98.013,43.231,99.344L43.231,99.344z"/>
<path fill="#FFFFFF" d="M36.368,101.367c0-1.763,1.432-3.193,3.194-3.193s3.194,1.431,3.194,3.193l0,0
	c0,1.762-1.432,3.191-3.194,3.191S36.368,103.129,36.368,101.367L36.368,101.367z"/>
<path fill="#FFFFFF" d="M43.772,101.207c0-1.674,1.359-3.033,3.035-3.033c1.674,0,3.033,1.359,3.033,3.033l0,0
	c0,1.674-1.359,3.033-3.033,3.033C45.132,104.24,43.772,102.881,43.772,101.207L43.772,101.207z"/>
<path fill="#FFFFFF" d="M30.024,101.367c0-0.825,0.107-1.646,0.318-2.441l0,0l5.105,1.642c-0.051,0.263-0.076,0.531-0.076,0.8l0,0
	c0,2.312,1.877,4.188,4.19,4.188c1.593,0,3.049-0.902,3.755-2.33l0,0c0.721,1.245,2.051,2.012,3.49,2.012
	c0.555,0,1.105-0.115,1.613-0.338H48.42c-1.446,3.624-4.954,6.002-8.857,6.002C34.298,110.9,30.024,106.629,30.024,101.367
	L30.024,101.367z"/>
<path fill="#FFFFFF" d="M59.505,131.977v-20.799c0-1.142,0.926-2.066,2.067-2.066l0,0h20.805c1.141,0,2.066,0.925,2.066,2.066l0,0
	v20.799c0,1.141-0.926,2.066-2.066,2.066l0,0H61.572C60.431,134.043,59.505,133.117,59.505,131.977L59.505,131.977z"/>
<polygon points="66.582,131.16 71.153,121.473 66.567,121.473 70.457,111.965 76.662,111.965 72.747,118.984 77.106,118.984 "/>
<path fill="#29D7FF" d="M82.77,100.809c-0.889-1.02-1.491-2.257-1.746-3.584l0,0c-0.009-0.057-0.015-0.113-0.015-0.17
	c0-0.383,0.242-0.723,0.604-0.849l0,0c0.809-0.281,1.657-0.424,2.512-0.424c0.856,0,1.707,0.143,2.514,0.424l0,0
	c0.361,0.126,0.604,0.466,0.604,0.849c0,0.057-0.004,0.113-0.017,0.17l0,0c-0.255,1.327-0.855,2.564-1.744,3.584l0,0
	c-0.342,0.393-0.836,0.617-1.356,0.617C83.605,101.426,83.11,101.201,82.77,100.809L82.77,100.809z"/>
<path fill="#29D7FF" d="M114.401,74.828c0-3.061,2.483-5.543,5.543-5.543c3.059,0,5.544,2.482,5.544,5.543l0,0
	c0,3.058-2.485,5.541-5.544,5.541C116.885,80.369,114.401,77.886,114.401,74.828L114.401,74.828z"/>
<path fill="#29D7FF" d="M18.46,74.828c0-3.061,2.484-5.543,5.545-5.543s5.545,2.482,5.545,5.543l0,0
	c0,3.058-2.484,5.541-5.545,5.541S18.46,77.886,18.46,74.828L18.46,74.828z"/>
<path fill="#29D7FF" d="M45.056,86.832c-2.306-1.164-3.76-3.525-3.76-6.107c0-3.779,3.068-6.845,6.848-6.845
	c3.021,0,5.687,1.981,6.557,4.874l0,0c-1.123,0.625-2.119,1.449-2.944,2.433l0,0c-0.833-0.958-2.04-1.509-3.31-1.509
	c-2.419,0-4.383,1.962-4.383,4.381C44.063,85.068,44.414,86.051,45.056,86.832L45.056,86.832z"/>
<path fill="#29D7FF" d="M105.026,116.461c1.909-3.175,2.919-6.809,2.919-10.512l0,0v-7.098c0-1.227-0.998-2.223-2.227-2.223
	c-0.351,0-0.698,0.082-1.01,0.242l0,0c-1.214,0.617-2.558,0.938-3.919,0.938c-1.625,0-3.22-0.458-4.596-1.322l0,0
	c1.722-2.886,4.832-4.654,8.193-4.654c3.777,0,7.197,2.229,8.725,5.685l0,0c0.792,1.793,1.201,3.732,1.201,5.693
	C114.313,109.139,110.601,114.436,105.026,116.461L105.026,116.461z"/>
<path fill="#29D7FF" d="M50.385,89.316c-0.064-0.451-0.097-0.906-0.097-1.361l0,0c0-5.264,4.271-9.534,9.535-9.534
	c3.473,0,6.672,1.887,8.349,4.925l0,0c-1.668,1.336-3.742,2.063-5.879,2.063c-1.737,0-3.441-0.481-4.923-1.39l0,0
	c-0.156-0.096-0.337-0.147-0.521-0.147c-0.516,0-0.947,0.395-0.992,0.909l0,0c-0.229,2.58-2.39,4.559-4.981,4.559
	C50.711,89.34,50.548,89.332,50.385,89.316L50.385,89.316z"/>
<path fill="#29D7FF" d="M88.431,119.611v-8.434c0-3.34-2.711-6.052-6.054-6.052l0,0l-9.218,0.001
	c0.646-3.402,1.848-6.674,3.562-9.685H76.72c0.972,0.961,2.12,1.724,3.384,2.245l0,0c0.315,1.397,0.972,2.693,1.914,3.775l0,0
	c0.53,0.609,1.298,0.959,2.106,0.959s1.579-0.35,2.108-0.959h-0.001c0.941-1.082,1.599-2.378,1.914-3.775l0,0
	c1.264-0.521,2.414-1.284,3.387-2.245l0,0c0.604,1.067,1.148,2.171,1.627,3.302l0,0c-0.201,0.86-0.304,1.739-0.304,2.623
	c0,2.445,0.781,4.828,2.224,6.803l0,0c-1.881,3.393-3.158,7.086-3.776,10.916l0,0C90.354,119.305,89.395,119.48,88.431,119.611
	L88.431,119.611z"/>
<path fill="#29D7FF" d="M93.664,131.461c-0.531-2.309-0.798-4.671-0.798-7.039c0-5.458,1.418-10.822,4.114-15.566l0,0
	c1.972,1.949,4.633,3.041,7.407,3.041c0.558,0,1.117-0.045,1.668-0.133l0,0c-0.459,1.465-1.093,2.869-1.885,4.186l0,0
	c-0.091,0.154-0.141,0.332-0.141,0.512c0,0.551,0.447,0.997,0.996,0.997c0.115,0,0.232-0.021,0.342-0.062l0,0
	c3.162-1.148,5.854-3.322,7.64-6.176l0,0c1.91,4.139,2.897,8.643,2.897,13.201c0,2.368-0.265,4.73-0.796,7.039l0,0
	c-3.441,1.227-7.069,1.853-10.722,1.853C100.731,133.313,97.106,132.688,93.664,131.461L93.664,131.461z"/>
<path fill="#29D7FF" d="M55.52,119.611c-0.966-0.131-1.924-0.307-2.872-0.525l0,0c-0.619-3.83-1.896-7.523-3.777-10.916h-0.001
	c0.829-1.135,1.444-2.41,1.815-3.766l0,0c0.742-0.899,1.148-2.03,1.148-3.197l0,0c0-1.014-0.307-2.006-0.881-2.842l0,0
	c0.438-0.999,0.928-1.975,1.467-2.923l0,0c1.971,1.948,4.633,3.043,7.404,3.043c2.774,0,5.436-1.095,7.406-3.043l0,0
	c1.711,3.011,2.914,6.282,3.56,9.685v-0.001h-9.217c-3.341,0-6.053,2.712-6.053,6.052l0,0V119.611z"/>
<path fill="#29D7FF" d="M77.519,157.889c0,3.059-2.482,5.541-5.543,5.541c-3.06,0-5.545-2.482-5.545-5.541l0,0
	c0-3.06,2.485-5.543,5.545-5.543C75.036,152.346,77.519,154.829,77.519,157.889L77.519,157.889z"/>
<path fill="#29D7FF" d="M50.285,131.461c-3.442,1.227-7.069,1.853-10.723,1.853c-3.654,0-7.282-0.626-10.724-1.853l0,0
	c-0.529-2.309-0.796-4.671-0.796-7.039c0-5.458,1.417-10.822,4.112-15.566l0,0c1.973,1.949,4.633,3.041,7.407,3.041
	c2.772,0,5.435-1.092,7.405-3.041l0,0c2.697,4.744,4.113,10.108,4.113,15.566C51.081,126.79,50.815,129.152,50.285,131.461
	L50.285,131.461z"/>
<g>
	<polyline fill="none" stroke="#000000" stroke-linecap="round" stroke-linejoin="round" stroke-miterlimit="10" points="
		35.756,161.014 31.662,161.014 31.662,154.633 35.756,154.633 	"/>
	
		<line fill="none" stroke="#000000" stroke-linecap="round" stroke-linejoin="round" stroke-miterlimit="10" x1="31.662" y1="157.508" x2="34.546" y2="157.508"/>
</g>
<g>
	
		<line fill="none" stroke="#000000" stroke-linecap="round" stroke-linejoin="round" stroke-miterlimit="10" x1="43.129" y1="154.656" x2="48.229" y2="154.656"/>
	
		<line fill="none" stroke="#000000" stroke-linecap="round" stroke-linejoin="round" stroke-miterlimit="10" x1="45.679" y1="154.656" x2="45.679" y2="161.014"/>
</g>
<path fill="none" stroke="#000000" stroke-linecap="round" stroke-linejoin="round" stroke-miterlimit="10" d="M41.432,155.526
	c-0.082-0.16-0.202-0.3-0.349-0.404l0,0c-0.444-0.317-0.976-0.489-1.521-0.489c-0.544,0-1.075,0.172-1.518,0.489h-0.002
	c-0.297,0.212-0.475,0.558-0.475,0.926c0,0.367,0.178,0.711,0.475,0.925h0.002c0.312,0.225,0.672,0.377,1.05,0.446l0,0l1.04,0.189
	c0.464,0.084,0.902,0.271,1.285,0.544l0,0c0.365,0.262,0.581,0.684,0.581,1.133s-0.216,0.87-0.581,1.132l0,0
	c-0.542,0.388-1.191,0.597-1.857,0.597c-0.665,0-1.315-0.209-1.855-0.597l0,0c-0.181-0.129-0.326-0.299-0.428-0.495l0,0"/>
<line fill="none" stroke="#000000" stroke-linecap="round" stroke-linejoin="round" stroke-miterlimit="10" x1="48.631" y1="161.014" x2="48.631" y2="160.797"/>
<rect x="163" fill="#F2F2F2" width="143.949" height="342.333"/>
<line fill="none" stroke="#000000" stroke-linecap="round" stroke-linejoin="round" stroke-miterlimit="10" x1="193.043" y1="186.087" x2="193.043" y2="190.746"/>
<path fill="none" stroke="#000000" stroke-linecap="round" stroke-linejoin="round" stroke-miterlimit="10" d="M193.043,187.052
	c-0.421-0.904-1.329-1.48-2.326-1.48c-1.419,0-2.569,1.15-2.569,2.564c0,1.418,1.15,2.568,2.569,2.568
	c0.997,0,1.905-0.578,2.326-1.482"/>
<path fill="none" stroke="#000000" stroke-linecap="round" stroke-linejoin="round" stroke-miterlimit="10" d="M199.333,186.505
	c-0.488-0.592-1.216-0.934-1.981-0.934c-1.417,0-2.568,1.15-2.568,2.564c0,1.418,1.151,2.568,2.568,2.568
	c0.766,0,1.493-0.344,1.981-0.934"/>
<line fill="none" stroke="#000000" stroke-linecap="round" stroke-linejoin="round" stroke-miterlimit="10" x1="227.243" y1="182.22" x2="227.243" y2="190.349"/>
<path fill="none" stroke="#000000" stroke-linecap="round" stroke-linejoin="round" stroke-miterlimit="10" d="M227.243,189.222
	c0.421,0.904,1.329,1.482,2.327,1.482c1.417,0,2.568-1.15,2.568-2.568c0-1.414-1.151-2.564-2.568-2.564
	c-0.998,0-1.906,0.576-2.327,1.48"/>
<line fill="none" stroke="#000000" stroke-linecap="round" stroke-linejoin="round" stroke-miterlimit="10" x1="201.209" y1="182.121" x2="201.209" y2="190.646"/>
<line fill="none" stroke="#000000" stroke-linecap="round" stroke-linejoin="round" stroke-miterlimit="10" x1="205.969" y1="185.095" x2="201.209" y2="189.06"/>
<line fill="none" stroke="#000000" stroke-linecap="round" stroke-linejoin="round" stroke-miterlimit="10" x1="206.008" y1="190.646" x2="203.23" y2="187.376"/>
<line fill="none" stroke="#000000" stroke-linecap="round" stroke-linejoin="round" stroke-miterlimit="10" x1="225.101" y1="182.121" x2="225.101" y2="190.646"/>
<line fill="none" stroke="#000000" stroke-linecap="round" stroke-linejoin="round" stroke-miterlimit="10" x1="181.48" y1="182.121" x2="181.48" y2="190.646"/>
<path fill="none" stroke="#000000" stroke-linecap="round" stroke-linejoin="round" stroke-miterlimit="10" d="M181.48,186.951
	c0.422-0.906,1.329-1.482,2.328-1.482c1.417,0,2.568,1.15,2.568,2.566l0,0v2.566"/>
<line fill="none" stroke="#000000" stroke-linecap="round" stroke-linejoin="round" stroke-miterlimit="10" x1="207.985" y1="185.988" x2="207.985" y2="190.646"/>
<path fill="none" stroke="#000000" stroke-linecap="round" stroke-linejoin="round" stroke-miterlimit="10" d="M212.05,190.585
	V187.5c0-1.121-0.91-2.031-2.032-2.031c-1.123,0-2.032,0.91-2.032,2.031l0,0"/>
<path fill="none" stroke="#000000" stroke-linecap="round" stroke-linejoin="round" stroke-miterlimit="10" d="M216.116,190.585
	V187.5c0-1.121-0.911-2.031-2.033-2.031c-1.123,0-2.033,0.91-2.033,2.031l0,0"/>
<path fill="none" stroke="#000000" stroke-linecap="round" stroke-linejoin="round" stroke-miterlimit="10" d="M239.152,188.054
	c0-1.418-1.149-2.568-2.566-2.568c-1.418,0-2.569,1.15-2.569,2.568c0,1.414,1.151,2.564,2.569,2.564
	C238.003,190.619,239.152,189.468,239.152,188.054"/>
<path fill="none" stroke="#000000" stroke-linecap="round" stroke-linejoin="round" stroke-miterlimit="10" d="M275.664,188.054
	c0-1.418-1.15-2.568-2.568-2.568c-1.417,0-2.566,1.15-2.566,2.568c0,1.414,1.149,2.564,2.566,2.564
	C274.514,190.619,275.664,189.468,275.664,188.054"/>
<line fill="none" stroke="#000000" stroke-linecap="round" stroke-linejoin="round" stroke-miterlimit="10" x1="254.214" y1="185.988" x2="254.214" y2="190.646"/>
<path fill="none" stroke="#000000" stroke-linecap="round" stroke-linejoin="round" stroke-miterlimit="10" d="M254.214,186.951
	c0.421-0.906,1.329-1.482,2.327-1.482c1.418,0,2.568,1.15,2.568,2.566l0,0v2.566"/>
<path fill="none" stroke="#000000" stroke-linecap="round" stroke-linejoin="round" stroke-miterlimit="10" d="M222.607,189.64
	c-0.482,0.668-1.258,1.064-2.082,1.064c-1.418,0-2.567-1.15-2.567-2.568c0-1.414,1.149-2.564,2.567-2.564
	c1.335,0,2.448,1.021,2.56,2.352l0,0h-5.118"/>
<path fill="none" stroke="#000000" stroke-linecap="round" stroke-linejoin="round" stroke-miterlimit="10" d="M265.564,189.64
	c-0.482,0.668-1.258,1.064-2.082,1.064c-1.418,0-2.568-1.15-2.568-2.568c0-1.414,1.15-2.564,2.568-2.564
	c1.334,0,2.447,1.021,2.559,2.352l0,0h-5.117"/>
<line fill="none" stroke="#000000" stroke-linecap="round" stroke-linejoin="round" stroke-miterlimit="10" x1="247.806" y1="190.646" x2="247.806" y2="185.988"/>
<path fill="none" stroke="#000000" stroke-linecap="round" stroke-linejoin="round" stroke-miterlimit="10" d="M252.254,186.333
	c-0.521-0.553-1.245-0.865-2.004-0.865c-1.029,0-1.974,0.574-2.444,1.492"/>
<line fill="none" stroke="#000000" stroke-linecap="round" stroke-linejoin="round" stroke-miterlimit="10" x1="277.629" y1="190.646" x2="277.629" y2="185.988"/>
<path fill="none" stroke="#000000" stroke-linecap="round" stroke-linejoin="round" stroke-miterlimit="10" d="M282.078,186.333
	c-0.52-0.553-1.246-0.865-2.004-0.865c-1.028,0-1.975,0.574-2.445,1.492"/>
<line fill="none" stroke="#000000" stroke-linecap="round" stroke-linejoin="round" stroke-miterlimit="10" x1="268.406" y1="190.511" x2="268.406" y2="189.88"/>
<line fill="none" stroke="#000000" stroke-linecap="round" stroke-linejoin="round" stroke-miterlimit="10" x1="245.527" y1="185.492" x2="245.527" y2="190.052"/>
<path fill="none" stroke="#000000" stroke-linecap="round" stroke-linejoin="round" stroke-miterlimit="10" d="M240.834,185.468
	v2.787c0,1.297,1.052,2.346,2.348,2.346c1.295,0,2.346-1.049,2.346-2.346l0,0"/>
<path fill="none" stroke="#000000" stroke-linecap="round" stroke-linejoin="round" stroke-miterlimit="10" d="M288.469,187.052
	c-0.422-0.902-1.33-1.48-2.327-1.48c-1.417,0-2.569,1.15-2.569,2.566c0,1.418,1.152,2.566,2.569,2.566
	c0.997,0,1.905-0.578,2.327-1.482"/>
<path fill="none" stroke="#000000" stroke-linecap="round" stroke-linejoin="round" stroke-miterlimit="10" d="M283.572,193.072
	c0.423,0.904,1.33,1.484,2.328,1.484c1.419,0,2.568-1.15,2.568-2.568l0,0V186"/>
<g>
	
		<polyline fill="none" stroke="#000000" stroke-width="1.0148" stroke-linecap="round" stroke-linejoin="round" stroke-miterlimit="10" points="
		227.039,32.326 223.447,32.326 223.447,26.735 227.039,26.735 	"/>
	
		<line fill="none" stroke="#000000" stroke-width="1.0148" stroke-linecap="round" stroke-linejoin="round" stroke-miterlimit="10" x1="223.447" y1="29.253" x2="225.978" y2="29.253"/>
	
		<polyline fill="none" stroke="#000000" stroke-width="1.0148" stroke-linecap="round" stroke-linejoin="round" stroke-miterlimit="10" points="
		209.949,32.326 206.362,32.326 206.362,26.735 209.949,26.735 	"/>
	
		<line fill="none" stroke="#000000" stroke-width="1.0148" stroke-linecap="round" stroke-linejoin="round" stroke-miterlimit="10" x1="206.362" y1="29.253" x2="208.89" y2="29.253"/>
	
		<polyline fill="none" stroke="#000000" stroke-width="1.0148" stroke-linecap="round" stroke-linejoin="round" stroke-miterlimit="10" points="
		194.016,32.326 194.016,26.735 197.932,32.326 197.932,26.735 	"/>
	
		<polyline fill="none" stroke="#000000" stroke-width="1.0148" stroke-linecap="round" stroke-linejoin="round" stroke-miterlimit="10" points="
		200.211,32.326 200.211,26.735 204.126,32.326 204.126,26.735 	"/>
	
		<line fill="none" stroke="#000000" stroke-width="1.0148" stroke-linecap="round" stroke-linejoin="round" stroke-miterlimit="10" x1="216.958" y1="26.754" x2="221.429" y2="26.754"/>
	
		<line fill="none" stroke="#000000" stroke-width="1.0148" stroke-linecap="round" stroke-linejoin="round" stroke-miterlimit="10" x1="219.194" y1="26.754" x2="219.194" y2="32.326"/>
	
		<path fill="none" stroke="#000000" stroke-width="1.0148" stroke-linecap="round" stroke-linejoin="round" stroke-miterlimit="10" d="
		M185.836,27.544c-0.381-0.509-0.978-0.809-1.613-0.809c-0.637,0-1.234,0.3-1.615,0.809l0,0c-0.429,0.573-0.661,1.271-0.661,1.987
		c0,0.715,0.232,1.412,0.661,1.984l0,0c0.381,0.512,0.979,0.811,1.615,0.811c0.636,0,1.232-0.299,1.613-0.811l0,0"/>
	
		<path fill="none" stroke="#000000" stroke-width="1.0148" stroke-linecap="round" stroke-linejoin="round" stroke-miterlimit="10" d="
		M215.452,27.544c-0.381-0.509-0.979-0.809-1.615-0.809s-1.234,0.3-1.615,0.809l0,0c-0.428,0.573-0.661,1.271-0.661,1.987
		c0,0.715,0.233,1.412,0.661,1.984l0,0c0.381,0.512,0.979,0.811,1.615,0.811s1.234-0.299,1.615-0.811l0,0"/>
	
		<path fill="none" stroke="#000000" stroke-width="1.0148" stroke-linecap="round" stroke-linejoin="round" stroke-miterlimit="10" d="
		M230.841,26.735h-1.655v5.591h1.655c0.642,0,1.241-0.322,1.595-0.861l0,0c0.379-0.574,0.579-1.248,0.579-1.934
		c0-0.689-0.2-1.361-0.579-1.936l0,0C232.082,27.057,231.482,26.735,230.841,26.735L230.841,26.735z"/>
	
		<path fill="none" stroke="#000000" stroke-width="1.0148" stroke-linecap="round" stroke-linejoin="round" stroke-miterlimit="10" d="
		M191.52,27.57c-0.368-0.525-0.968-0.835-1.607-0.835c-0.638,0-1.238,0.31-1.608,0.835l0,0c-0.399,0.574-0.619,1.259-0.619,1.961
		c0,0.701,0.22,1.386,0.619,1.96l0,0c0.37,0.522,0.971,0.835,1.608,0.835c0.64,0,1.239-0.313,1.607-0.835l0,0
		c0.401-0.574,0.619-1.259,0.619-1.96C192.139,28.829,191.921,28.145,191.52,27.57L191.52,27.57z"/>
	
		<line fill="none" stroke="#000000" stroke-width="1.0148" stroke-linecap="round" stroke-linejoin="round" stroke-miterlimit="10" x1="275.257" y1="32.326" x2="275.257" y2="26.754"/>
	
		<polyline fill="none" stroke="#000000" stroke-width="1.0148" stroke-linecap="round" stroke-linejoin="round" stroke-miterlimit="10" points="
		249.839,32.326 249.839,26.735 252.078,30.494 254.316,26.735 254.316,32.326 	"/>
	
		<polyline fill="none" stroke="#000000" stroke-width="1.0148" stroke-linecap="round" stroke-linejoin="round" stroke-miterlimit="10" points="
		256.566,32.326 256.566,26.735 258.803,30.494 261.04,26.735 261.04,32.326 	"/>
	
		<polyline fill="none" stroke="#000000" stroke-width="1.0148" stroke-linecap="round" stroke-linejoin="round" stroke-miterlimit="10" points="
		269.023,32.326 269.023,26.735 272.941,32.326 272.941,26.735 	"/>
	
		<line fill="none" stroke="#000000" stroke-width="1.0148" stroke-linecap="round" stroke-linejoin="round" stroke-miterlimit="10" x1="277.232" y1="26.754" x2="281.703" y2="26.754"/>
	
		<line fill="none" stroke="#000000" stroke-width="1.0148" stroke-linecap="round" stroke-linejoin="round" stroke-miterlimit="10" x1="279.467" y1="26.754" x2="279.467" y2="32.326"/>
	
		<polyline fill="none" stroke="#000000" stroke-width="1.0148" stroke-linecap="round" stroke-linejoin="round" stroke-miterlimit="10" points="
		283.412,26.724 285.648,29.799 287.885,26.724 	"/>
	
		<line fill="none" stroke="#000000" stroke-width="1.0148" stroke-linecap="round" stroke-linejoin="round" stroke-miterlimit="10" x1="285.648" y1="32.326" x2="285.648" y2="29.799"/>
	
		<path fill="none" stroke="#000000" stroke-width="1.0148" stroke-linecap="round" stroke-linejoin="round" stroke-miterlimit="10" d="
		M266.986,26.735v3.657c0,1.068-0.87,1.934-1.935,1.934c-1.068,0-1.935-0.865-1.935-1.934l0,0v-3.657"/>
	
		<path fill="none" stroke="#000000" stroke-width="1.0148" stroke-linecap="round" stroke-linejoin="round" stroke-miterlimit="10" d="
		M241.597,27.544c-0.378-0.509-0.978-0.809-1.614-0.809c-0.633,0-1.232,0.3-1.613,0.809l0,0c-0.43,0.573-0.66,1.271-0.66,1.987
		c0,0.715,0.23,1.412,0.66,1.984l0,0c0.381,0.512,0.98,0.811,1.613,0.811c0.637,0,1.236-0.299,1.614-0.811l0,0"/>
	
		<path fill="none" stroke="#000000" stroke-width="1.0148" stroke-linecap="round" stroke-linejoin="round" stroke-miterlimit="10" d="
		M247.28,27.57c-0.366-0.525-0.966-0.835-1.606-0.835c-0.639,0-1.237,0.31-1.605,0.835l0,0c-0.406,0.574-0.621,1.259-0.621,1.961
		c0,0.701,0.215,1.386,0.621,1.96l0,0c0.368,0.522,0.967,0.835,1.605,0.835c0.641,0,1.24-0.313,1.606-0.835l0,0
		c0.403-0.574,0.618-1.259,0.618-1.96C247.898,28.829,247.684,28.145,247.28,27.57L247.28,27.57z"/>
</g>
<g>
	
		<polyline fill="none" stroke="#000000" stroke-width="2" stroke-linecap="round" stroke-linejoin="round" stroke-miterlimit="10" points="
		288.004,46.658 281.708,46.658 281.708,36.851 288.004,36.851 	"/>
	
		<line fill="none" stroke="#000000" stroke-width="2" stroke-linecap="round" stroke-linejoin="round" stroke-miterlimit="10" x1="281.708" y1="41.269" x2="286.141" y2="41.269"/>
	
		<polyline fill="none" stroke="#000000" stroke-width="2" stroke-linecap="round" stroke-linejoin="round" stroke-miterlimit="10" points="
		229.646,46.658 223.353,46.658 223.353,36.851 229.646,36.851 	"/>
	
		<line fill="none" stroke="#000000" stroke-width="2" stroke-linecap="round" stroke-linejoin="round" stroke-miterlimit="10" x1="223.353" y1="41.269" x2="227.785" y2="41.269"/>
	
		<line fill="none" stroke="#000000" stroke-width="2" stroke-linecap="round" stroke-linejoin="round" stroke-miterlimit="10" x1="182.545" y1="36.885" x2="182.545" y2="46.658"/>
	
		<line fill="none" stroke="#000000" stroke-width="2" stroke-linecap="round" stroke-linejoin="round" stroke-miterlimit="10" x1="189.25" y1="46.658" x2="189.25" y2="36.885"/>
	
		<line fill="none" stroke="#000000" stroke-width="2" stroke-linecap="round" stroke-linejoin="round" stroke-miterlimit="10" x1="182.545" y1="41.203" x2="189.25" y2="41.203"/>
	
		<line fill="none" stroke="#000000" stroke-width="2" stroke-linecap="round" stroke-linejoin="round" stroke-miterlimit="10" x1="262.825" y1="43.827" x2="267.598" y2="43.827"/>
	
		<polyline fill="none" stroke="#000000" stroke-width="2" stroke-linecap="round" stroke-linejoin="round" stroke-miterlimit="10" points="
		261.305,46.658 265.229,36.851 269.154,46.658 	"/>
	
		<line fill="none" stroke="#000000" stroke-width="2" stroke-linecap="round" stroke-linejoin="round" stroke-miterlimit="10" x1="193.981" y1="43.827" x2="198.756" y2="43.827"/>
	
		<polyline fill="none" stroke="#000000" stroke-width="2" stroke-linecap="round" stroke-linejoin="round" stroke-miterlimit="10" points="
		192.463,46.658 196.388,36.851 200.313,46.658 	"/>
	
		<line fill="none" stroke="#000000" stroke-width="2" stroke-linecap="round" stroke-linejoin="round" stroke-miterlimit="10" x1="239.804" y1="46.641" x2="237.302" y2="41.754"/>
	<path fill="none" stroke="#000000" stroke-width="2" stroke-linecap="round" stroke-linejoin="round" stroke-miterlimit="10" d="
		M233.271,46.658v-9.808h4.03c1.353,0,2.453,1.099,2.453,2.451c0,1.354-1.101,2.452-2.453,2.452l0,0h-4.03"/>
	<path fill="none" stroke="#000000" stroke-width="2" stroke-linecap="round" stroke-linejoin="round" stroke-miterlimit="10" d="
		M253.468,46.658v-9.808h4.032c1.355,0,2.451,1.099,2.451,2.451c0,1.354-1.096,2.452-2.451,2.452l0,0h-4.032"/>
	<path fill="none" stroke="#000000" stroke-width="2" stroke-linecap="round" stroke-linejoin="round" stroke-miterlimit="10" d="
		M278.234,38.27c-0.668-0.895-1.717-1.419-2.832-1.419c-1.113,0-2.163,0.524-2.83,1.419l0,0c-0.754,1.006-1.16,2.228-1.16,3.484
		c0,1.258,0.406,2.479,1.16,3.484l0,0c0.667,0.893,1.717,1.42,2.83,1.42c1.115,0,2.164-0.527,2.832-1.42l0,0"/>
	<path fill="none" stroke="#000000" stroke-width="2" stroke-linecap="round" stroke-linejoin="round" stroke-miterlimit="10" d="
		M209.391,38.27c-0.668-0.895-1.715-1.419-2.83-1.419s-2.164,0.524-2.83,1.419l0,0c-0.753,1.006-1.16,2.228-1.16,3.484
		c0,1.258,0.407,2.479,1.16,3.484l0,0c0.666,0.893,1.715,1.42,2.83,1.42s2.162-0.527,2.83-1.42l0,0"/>
	
		<line fill="none" stroke="#000000" stroke-width="2" stroke-linecap="round" stroke-linejoin="round" stroke-miterlimit="10" x1="213.246" y1="36.885" x2="213.246" y2="46.658"/>
	
		<line fill="none" stroke="#000000" stroke-width="2" stroke-linecap="round" stroke-linejoin="round" stroke-miterlimit="10" x1="213.246" y1="42.793" x2="219.609" y2="36.885"/>
	
		<line fill="none" stroke="#000000" stroke-width="2" stroke-linecap="round" stroke-linejoin="round" stroke-miterlimit="10" x1="219.723" y1="46.658" x2="214.835" y2="41.316"/>
	<path fill="none" stroke="#000000" stroke-width="2" stroke-linecap="round" stroke-linejoin="round" stroke-miterlimit="10" d="
		M249.384,38.225c-0.124-0.249-0.31-0.462-0.536-0.623l0,0c-0.681-0.489-1.498-0.751-2.336-0.751s-1.654,0.262-2.336,0.751h-0.002
		c-0.457,0.328-0.729,0.857-0.729,1.422c0,0.566,0.271,1.096,0.729,1.422h0.002c0.481,0.346,1.034,0.58,1.617,0.688l0,0l1.599,0.291
		c0.713,0.131,1.388,0.416,1.976,0.838l0,0c0.561,0.401,0.893,1.049,0.893,1.74c0,0.688-0.332,1.338-0.893,1.738l0,0
		c-0.832,0.597-1.83,0.918-2.855,0.918c-1.022,0-2.022-0.321-2.856-0.918l0,0c-0.274-0.198-0.498-0.46-0.657-0.762l0,0"/>
</g>
<path fill="none" stroke="#000000" stroke-linecap="round" stroke-linejoin="round" stroke-miterlimit="10" d="M260.729,161.014
	h-4.213c0-0.805,0.379-1.56,1.023-2.04l0,0c0.236-0.178,0.491-0.328,0.76-0.451l0,0l1.314-0.604c0.168-0.077,0.329-0.176,0.477-0.29
	l0,0c0.285-0.226,0.452-0.569,0.452-0.933c0-0.364-0.167-0.708-0.452-0.933l0,0c-0.419-0.328-0.937-0.507-1.467-0.507
	c-0.533,0-1.049,0.179-1.468,0.507l0,0c-0.285,0.225-0.453,0.568-0.453,0.933l0,0"/>
<path fill="none" stroke="#000000" stroke-linecap="round" stroke-linejoin="round" stroke-miterlimit="10" d="M265.981,156.141
	c-0.364-0.553-0.982-0.886-1.644-0.886c-0.662,0-1.28,0.333-1.644,0.886l0,0c-0.39,0.592-0.597,1.285-0.597,1.993
	s0.207,1.401,0.597,1.993l0,0c0.363,0.554,0.981,0.887,1.644,0.887c0.661,0,1.279-0.333,1.644-0.887l0,0
	c0.389-0.592,0.596-1.285,0.596-1.993S266.37,156.732,265.981,156.141L265.981,156.141z"/>
<path fill="none" stroke="#000000" stroke-linecap="round" stroke-linejoin="round" stroke-miterlimit="10" d="M272.135,156.141
	c-0.363-0.553-0.981-0.886-1.644-0.886c-0.661,0-1.279,0.333-1.644,0.886l0,0c-0.389,0.592-0.596,1.285-0.596,1.993
	s0.207,1.401,0.596,1.993l0,0c0.364,0.554,0.982,0.887,1.644,0.887c0.662,0,1.28-0.333,1.644-0.887l0,0
	c0.39-0.592,0.598-1.285,0.598-1.993S272.524,156.732,272.135,156.141L272.135,156.141z"/>
<g>
	<path fill="none" stroke="#000000" stroke-linecap="round" stroke-linejoin="round" stroke-miterlimit="10" d="M278.197,157.151
		c0-1.047-0.849-1.896-1.896-1.896s-1.897,0.85-1.897,1.896c0,1.046,0.851,1.896,1.897,1.896S278.197,158.197,278.197,157.151"/>
	<path fill="none" stroke="#000000" stroke-linecap="round" stroke-linejoin="round" stroke-miterlimit="10" d="M274.658,160.127
		c0.363,0.554,0.981,0.887,1.644,0.887s1.28-0.333,1.644-0.887l0,0c0.39-0.592,0.597-1.285,0.597-1.993s-0.207-1.401-0.597-1.993
		l0,0c-0.363-0.553-0.981-0.886-1.644-0.886"/>
</g>
<path d="M282.944,65.301c-2.858,0-5.565,1.283-7.374,3.493c-12.746-5.805-26.589-8.809-40.595-8.809
	c-14.007,0-27.851,3.004-40.596,8.809c-1.811-2.21-4.518-3.493-7.375-3.493c-5.26,0-9.529,4.268-9.529,9.527
	c0,4.667,3.382,8.646,7.989,9.4h-0.001c0.883,9.148,3.051,18.125,6.438,26.669c-1.881,4.261-2.852,8.866-2.852,13.524
	c0,2.519,0.283,5.029,0.847,7.484c0.151,0.662,0.633,1.203,1.273,1.433c3.657,1.302,7.511,1.968,11.393,1.968
	c1.084,0,2.167-0.053,3.248-0.156c5.786,7.394,12.605,13.918,20.249,19.369l0,0c-0.406,1.076-0.615,2.219-0.615,3.369
	c0,5.258,4.27,9.525,9.531,9.525c5.26,0,9.528-4.268,9.528-9.525c0-1.15-0.208-2.293-0.613-3.369l0,0
	c7.643-5.451,14.463-11.976,20.249-19.369c1.078,0.104,2.162,0.156,3.248,0.156c3.881,0,7.734-0.666,11.391-1.968
	c0.642-0.229,1.122-0.771,1.272-1.433c0.564-2.455,0.849-4.966,0.849-7.484c0-4.658-0.971-9.264-2.851-13.524
	c3.385-8.544,5.551-17.521,6.437-26.669l0,0c4.607-0.755,7.989-4.733,7.989-9.4C292.475,69.568,288.204,65.301,282.944,65.301z
	 M241.727,151.166c-1.787-1.795-4.217-2.805-6.751-2.805c-2.536,0-4.967,1.01-6.755,2.805c-6.673-4.779-12.69-10.414-17.897-16.76
	c1.229-0.288,2.441-0.645,3.631-1.068c0.642-0.229,1.121-0.77,1.273-1.432l0,0c0.563-2.456,0.847-4.966,0.847-7.484
	c0-1.082-0.052-2.162-0.156-3.238c0.861,0.18,1.729,0.325,2.602,0.436v10.356c0,3.34,2.712,6.051,6.053,6.051h20.805
	c3.341,0,6.054-2.711,6.054-6.051v-10.356c0.872-0.11,1.74-0.256,2.6-0.436c-0.104,1.076-0.158,2.156-0.158,3.238
	c0,2.519,0.287,5.028,0.848,7.484c0.154,0.662,0.632,1.203,1.275,1.432c1.19,0.424,2.401,0.78,3.632,1.068
	C254.419,140.752,248.401,146.387,241.727,151.166z M278.206,97.365c-0.085-0.219-0.177-0.438-0.271-0.652
	c-1.843-4.178-5.983-6.873-10.548-6.873c-4.321,0-8.278,2.414-10.253,6.256c-0.225-0.453-0.459-0.897-0.703-1.338
	c1.444-1.975,2.223-4.357,2.223-6.803c0-6.362-5.165-11.526-11.53-11.526c-6.362,0-11.529,5.164-11.529,11.526
	c0,2.445,0.778,4.828,2.225,6.803c-1.195,2.154-2.149,4.434-2.844,6.796l0,0c-0.696-2.362-1.652-4.642-2.843-6.796l0,0
	c1.443-1.975,2.222-4.357,2.222-6.803c0-6.362-5.167-11.526-11.531-11.526c-1.241,0-2.475,0.201-3.654,0.595
	c-1.444-3.131-4.578-5.136-8.025-5.136c-4.879,0-8.84,3.958-8.84,8.837c0,3.332,1.877,6.383,4.853,7.887l0,0
	c0.278,0.141,0.587,0.214,0.899,0.214c1.1,0,1.992-0.893,1.992-1.993c0-0.459-0.159-0.905-0.451-1.26l0,0
	c-0.35-0.428-0.54-0.963-0.54-1.514c0-1.318,1.07-2.389,2.39-2.389c0.512,0,1.011,0.164,1.424,0.47l0,0
	c-1.031,1.765-1.576,3.772-1.576,5.815c0,2.445,0.779,4.828,2.223,6.803l0,0c-0.243,0.44-0.477,0.885-0.702,1.338
	c-1.976-3.842-5.933-6.256-10.252-6.256c-4.829,0-9.146,3.008-10.817,7.536c-1.086-4.386-1.852-8.845-2.295-13.341
	c4.176-1.107,7.084-4.889,7.084-9.207c0-0.841-0.111-1.677-0.33-2.487c12.18-5.517,25.398-8.371,38.771-8.371
	c13.372,0,26.59,2.854,38.77,8.371V72.34c-0.22,0.812-0.33,1.647-0.33,2.488c0,4.318,2.907,8.1,7.084,9.207
	C280.056,88.527,279.289,92.982,278.206,97.365z"/>
<path fill="#FFFFFF" d="M237.587,87.955c0-5.264,4.273-9.534,9.535-9.534c5.268,0,9.539,4.271,9.539,9.534l0,0
	c0,3.695-2.136,7.058-5.481,8.631l0,0c-0.16-0.617-0.615-1.112-1.216-1.32l0,0c-0.912-0.318-1.874-0.479-2.842-0.479
	c-0.963,0-1.925,0.16-2.836,0.479l0,0c-0.6,0.208-1.057,0.703-1.214,1.32l0,0C239.725,95.013,237.587,91.65,237.587,87.955
	L237.587,87.955z"/>
<path d="M243.487,92.541c-0.154-0.089-0.251-0.253-0.251-0.431c0-0.275,0.224-0.499,0.499-0.499c0.088,0,0.174,0.023,0.248,0.067
	l0,0c0.957,0.551,2.039,0.842,3.139,0.842c1.104,0,2.188-0.291,3.145-0.842l0,0c0.074-0.044,0.159-0.067,0.247-0.067
	c0.275,0,0.499,0.224,0.499,0.499c0,0.178-0.096,0.342-0.249,0.431l0,0c-1.106,0.64-2.362,0.976-3.642,0.976
	C245.848,93.517,244.593,93.181,243.487,92.541L243.487,92.541z"/>
<path fill="#FFFFFF" d="M257.852,101.367c0-1.382,0.299-2.745,0.878-3.998l0,0c1.521,0.939,3.273,1.437,5.061,1.437
	c1.521,0,3.017-0.358,4.371-1.048l0,0c0.172-0.088,0.364-0.134,0.558-0.134c0.678,0,1.23,0.55,1.23,1.228h-0.002v7.097
	c0,1.601-0.197,3.194-0.589,4.747l0,0c-0.648,0.136-1.309,0.205-1.971,0.205C262.122,110.9,257.852,106.629,257.852,101.367
	L257.852,101.367z"/>
<path fill="#FFFFFF" d="M213.588,90.33c0.097,0.004,0.19,0.006,0.287,0.006c3.108,0,5.7-2.373,5.974-5.468l0,0
	c1.639,1.005,3.523,1.537,5.444,1.537c2.286,0,4.509-0.753,6.324-2.142l0,0c0.491,1.169,0.744,2.424,0.744,3.691l0,0
	c0,5.262-4.274,9.534-9.538,9.534C218.472,97.489,214.672,94.543,213.588,90.33L213.588,90.33z"/>
<path fill="#FFFFFF" d="M206.231,99.344c-0.736-1.336-2.143-2.166-3.669-2.166c-1.638,0-3.126,0.953-3.808,2.441l0,0l-5.106-1.642
	c1.407-3.7,4.954-6.146,8.914-6.146c3.75,0,7.151,2.197,8.692,5.615l0,0c-0.461-0.179-0.953-0.27-1.447-0.27
	C208.305,97.178,206.927,98.013,206.231,99.344L206.231,99.344z"/>
<path fill="#FFFFFF" d="M199.368,101.367c0-1.763,1.432-3.193,3.194-3.193s3.194,1.431,3.194,3.193l0,0
	c0,1.762-1.432,3.191-3.194,3.191S199.368,103.129,199.368,101.367L199.368,101.367z"/>
<path fill="#FFFFFF" d="M206.772,101.207c0-1.674,1.359-3.033,3.035-3.033c1.674,0,3.033,1.359,3.033,3.033l0,0
	c0,1.674-1.359,3.033-3.033,3.033C208.132,104.24,206.772,102.881,206.772,101.207L206.772,101.207z"/>
<path fill="#FFFFFF" d="M193.024,101.367c0-0.825,0.107-1.646,0.318-2.441l0,0l5.105,1.642c-0.051,0.263-0.076,0.531-0.076,0.8l0,0
	c0,2.312,1.877,4.188,4.19,4.188c1.593,0,3.049-0.902,3.755-2.33l0,0c0.721,1.245,2.051,2.012,3.49,2.012
	c0.555,0,1.105-0.115,1.613-0.338h-0.001c-1.446,3.624-4.954,6.002-8.857,6.002C197.298,110.9,193.024,106.629,193.024,101.367
	L193.024,101.367z"/>
<path fill="#FFFFFF" d="M222.505,131.977v-20.799c0-1.142,0.926-2.066,2.067-2.066l0,0h20.805c1.141,0,2.066,0.925,2.066,2.066l0,0
	v20.799c0,1.141-0.926,2.066-2.066,2.066l0,0h-20.805C223.431,134.043,222.505,133.117,222.505,131.977L222.505,131.977z"/>
<polygon points="229.582,131.16 234.153,121.473 229.567,121.473 233.457,111.965 239.662,111.965 235.747,118.984 240.106,118.984 
	"/>
<path fill="#FF260F" d="M245.77,100.809c-0.889-1.02-1.491-2.257-1.746-3.584l0,0c-0.009-0.057-0.015-0.113-0.015-0.17
	c0-0.383,0.242-0.723,0.604-0.849l0,0c0.809-0.281,1.657-0.424,2.512-0.424c0.856,0,1.707,0.143,2.514,0.424l0,0
	c0.361,0.126,0.604,0.466,0.604,0.849c0,0.057-0.004,0.113-0.017,0.17l0,0c-0.255,1.327-0.855,2.564-1.744,3.584l0,0
	c-0.342,0.393-0.836,0.617-1.356,0.617C246.605,101.426,246.11,101.201,245.77,100.809L245.77,100.809z"/>
<path fill="#FF260F" d="M277.401,74.828c0-3.061,2.483-5.543,5.543-5.543c3.059,0,5.544,2.482,5.544,5.543l0,0
	c0,3.058-2.485,5.541-5.544,5.541C279.885,80.369,277.401,77.886,277.401,74.828L277.401,74.828z"/>
<path fill="#FF260F" d="M181.46,74.828c0-3.061,2.484-5.543,5.545-5.543s5.545,2.482,5.545,5.543l0,0
	c0,3.058-2.484,5.541-5.545,5.541S181.46,77.886,181.46,74.828L181.46,74.828z"/>
<path fill="#FF260F" d="M208.056,86.832c-2.306-1.164-3.76-3.525-3.76-6.107c0-3.779,3.068-6.845,6.848-6.845
	c3.021,0,5.687,1.981,6.557,4.874l0,0c-1.123,0.625-2.119,1.449-2.944,2.433l0,0c-0.833-0.958-2.04-1.509-3.31-1.509
	c-2.419,0-4.383,1.962-4.383,4.381C207.063,85.068,207.414,86.051,208.056,86.832L208.056,86.832z"/>
<path fill="#FF260F" d="M268.026,116.461c1.909-3.175,2.919-6.809,2.919-10.512l0,0v-7.098c0-1.227-0.998-2.223-2.227-2.223
	c-0.351,0-0.698,0.082-1.01,0.242l0,0c-1.214,0.617-2.558,0.938-3.919,0.938c-1.625,0-3.22-0.458-4.596-1.322l0,0
	c1.722-2.886,4.832-4.654,8.193-4.654c3.777,0,7.197,2.229,8.725,5.685l0,0c0.792,1.793,1.201,3.732,1.201,5.693
	C277.313,109.139,273.601,114.436,268.026,116.461L268.026,116.461z"/>
<path fill="#FF260F" d="M213.385,89.316c-0.064-0.451-0.097-0.906-0.097-1.361l0,0c0-5.264,4.271-9.534,9.535-9.534
	c3.473,0,6.672,1.887,8.349,4.925l0,0c-1.668,1.336-3.742,2.063-5.879,2.063c-1.737,0-3.441-0.481-4.923-1.39l0,0
	c-0.156-0.096-0.337-0.147-0.521-0.147c-0.516,0-0.947,0.395-0.992,0.909l0,0c-0.229,2.58-2.39,4.559-4.981,4.559
	C213.711,89.34,213.548,89.332,213.385,89.316L213.385,89.316z"/>
<path fill="#FF260F" d="M251.431,119.611v-8.434c0-3.34-2.711-6.052-6.054-6.052l0,0l-9.218,0.001
	c0.646-3.402,1.848-6.674,3.562-9.685h-0.001c0.972,0.961,2.12,1.724,3.384,2.245l0,0c0.315,1.397,0.972,2.693,1.914,3.775l0,0
	c0.53,0.609,1.298,0.959,2.106,0.959s1.579-0.35,2.108-0.959h-0.001c0.941-1.082,1.599-2.378,1.914-3.775l0,0
	c1.264-0.521,2.414-1.284,3.387-2.245l0,0c0.604,1.067,1.148,2.171,1.627,3.302l0,0c-0.201,0.86-0.304,1.739-0.304,2.623
	c0,2.445,0.781,4.828,2.224,6.803l0,0c-1.881,3.393-3.158,7.086-3.776,10.916l0,0C253.354,119.305,252.395,119.48,251.431,119.611
	L251.431,119.611z"/>
<path fill="#FF260F" d="M256.664,131.461c-0.531-2.309-0.798-4.671-0.798-7.039c0-5.458,1.418-10.822,4.114-15.566l0,0
	c1.972,1.949,4.633,3.041,7.407,3.041c0.558,0,1.117-0.045,1.668-0.133l0,0c-0.459,1.465-1.093,2.869-1.885,4.186l0,0
	c-0.091,0.154-0.141,0.332-0.141,0.512c0,0.551,0.447,0.997,0.996,0.997c0.115,0,0.232-0.021,0.342-0.062l0,0
	c3.162-1.148,5.854-3.322,7.64-6.176l0,0c1.91,4.139,2.897,8.643,2.897,13.201c0,2.368-0.265,4.73-0.796,7.039l0,0
	c-3.441,1.227-7.069,1.853-10.722,1.853C263.731,133.313,260.106,132.688,256.664,131.461L256.664,131.461z"/>
<path fill="#FF260F" d="M218.52,119.611c-0.966-0.131-1.924-0.307-2.872-0.525l0,0c-0.619-3.83-1.896-7.523-3.777-10.916h-0.001
	c0.829-1.135,1.444-2.41,1.815-3.766l0,0c0.742-0.899,1.148-2.03,1.148-3.197l0,0c0-1.014-0.307-2.006-0.881-2.842l0,0
	c0.438-0.999,0.928-1.975,1.467-2.923l0,0c1.971,1.948,4.633,3.043,7.404,3.043c2.774,0,5.436-1.095,7.406-3.043l0,0
	c1.711,3.011,2.914,6.282,3.56,9.685v-0.001h-9.217c-3.341,0-6.053,2.712-6.053,6.052l0,0V119.611z"/>
<path fill="#FF260F" d="M240.519,157.889c0,3.059-2.482,5.541-5.543,5.541c-3.06,0-5.545-2.482-5.545-5.541l0,0
	c0-3.06,2.485-5.543,5.545-5.543C238.036,152.346,240.519,154.829,240.519,157.889L240.519,157.889z"/>
<path fill="#FF260F" d="M213.285,131.461c-3.442,1.227-7.069,1.853-10.723,1.853c-3.654,0-7.282-0.626-10.724-1.853l0,0
	c-0.529-2.309-0.796-4.671-0.796-7.039c0-5.458,1.417-10.822,4.112-15.566l0,0c1.973,1.949,4.633,3.041,7.407,3.041
	c2.772,0,5.435-1.092,7.405-3.041l0,0c2.697,4.744,4.113,10.108,4.113,15.566C214.081,126.79,213.815,129.152,213.285,131.461
	L213.285,131.461z"/>
<g>
	<polyline fill="none" stroke="#000000" stroke-linecap="round" stroke-linejoin="round" stroke-miterlimit="10" points="
		198.756,161.014 194.662,161.014 194.662,154.633 198.756,154.633 	"/>
	
		<line fill="none" stroke="#000000" stroke-linecap="round" stroke-linejoin="round" stroke-miterlimit="10" x1="194.662" y1="157.508" x2="197.546" y2="157.508"/>
</g>
<g>
	
		<line fill="none" stroke="#000000" stroke-linecap="round" stroke-linejoin="round" stroke-miterlimit="10" x1="206.129" y1="154.656" x2="211.229" y2="154.656"/>
	
		<line fill="none" stroke="#000000" stroke-linecap="round" stroke-linejoin="round" stroke-miterlimit="10" x1="208.679" y1="154.656" x2="208.679" y2="161.014"/>
</g>
<path fill="none" stroke="#000000" stroke-linecap="round" stroke-linejoin="round" stroke-miterlimit="10" d="M204.432,155.526
	c-0.082-0.16-0.202-0.3-0.349-0.404l0,0c-0.444-0.317-0.976-0.489-1.521-0.489c-0.544,0-1.075,0.172-1.518,0.489h-0.002
	c-0.297,0.212-0.475,0.558-0.475,0.926c0,0.367,0.178,0.711,0.475,0.925h0.002c0.312,0.225,0.672,0.377,1.05,0.446l0,0l1.04,0.189
	c0.464,0.084,0.902,0.271,1.285,0.544l0,0c0.365,0.262,0.581,0.684,0.581,1.133s-0.216,0.87-0.581,1.132l0,0
	c-0.542,0.388-1.191,0.597-1.857,0.597c-0.665,0-1.315-0.209-1.855-0.597l0,0c-0.181-0.129-0.326-0.299-0.428-0.495l0,0"/>
<line fill="none" stroke="#000000" stroke-linecap="round" stroke-linejoin="round" stroke-miterlimit="10" x1="211.631" y1="161.014" x2="211.631" y2="160.797"/>
</svg>
