<?xml version="1.0" encoding="utf-8"?>
<!-- Generator: Adobe Illustrator 13.0.0, SVG Export Plug-In . SVG Version: 6.00 Build 14948)  -->
<!DOCTYPE svg PUBLIC "-//W3C//DTD SVG 1.1//EN" "http://www.w3.org/Graphics/SVG/1.1/DTD/svg11.dtd">
<svg version="1.1" id="Layer_1" xmlns="http://www.w3.org/2000/svg" xmlns:xlink="http://www.w3.org/1999/xlink" x="0px" y="0px"
	 width="460.5px" height="130px" viewBox="0 0 460.5 130" enable-background="new 0 0 460.5 130" xml:space="preserve">
<g>
	
		<polyline fill="none" stroke="#231F20" stroke-width="5" stroke-linecap="round" stroke-linejoin="round" stroke-miterlimit="10" points="
		-744.93,-1436.051 -778.164,-1436.051 -778.164,-1487.836 -744.93,-1487.836 	"/>
	
		<line fill="none" stroke="#231F20" stroke-width="5" stroke-linecap="round" stroke-linejoin="round" stroke-miterlimit="10" x1="-778.164" y1="-1464.504" x2="-754.761" y2="-1464.504"/>
</g>
<g>
	
		<line fill="none" stroke="#231F20" stroke-width="5" stroke-linecap="round" stroke-linejoin="round" stroke-miterlimit="10" x1="-728.113" y1="-1464.504" x2="-704.714" y2="-1464.504"/>
	
		<polyline fill="none" stroke="#231F20" stroke-width="5" stroke-linecap="round" stroke-linejoin="round" stroke-miterlimit="10" points="
		-728.113,-1436.051 -728.113,-1487.836 -694.876,-1487.836 	"/>
</g>
<path fill="none" stroke="#231F20" stroke-width="5" stroke-linecap="round" stroke-linejoin="round" stroke-miterlimit="10" d="
	M-656.911-1461.945h11.403v10.787c0,2.744-0.89,5.416-2.53,7.617l0,0c-3.525,4.713-9.067,7.49-14.952,7.49
	c-5.889,0-11.432-2.777-14.953-7.49l0,0c-3.974-5.313-6.116-11.771-6.116-18.404c0-6.632,2.144-13.087,6.116-18.399l0,0
	c3.521-4.716,9.064-7.491,14.953-7.491c5.259,0,10.278,2.22,13.813,6.112"/>
<g>
	
		<line fill="none" stroke="#231F20" stroke-width="5" stroke-linecap="round" stroke-linejoin="round" stroke-miterlimit="10" x1="-628.691" y1="-1487.309" x2="-628.691" y2="-1435.703"/>
	
		<line fill="none" stroke="#231F20" stroke-width="5" stroke-linecap="round" stroke-linejoin="round" stroke-miterlimit="10" x1="-593.289" y1="-1435.703" x2="-593.289" y2="-1487.309"/>
	
		<line fill="none" stroke="#231F20" stroke-width="5" stroke-linecap="round" stroke-linejoin="round" stroke-miterlimit="10" x1="-628.691" y1="-1464.504" x2="-593.289" y2="-1464.504"/>
</g>
<line fill="none" stroke="#231F20" stroke-width="5" stroke-linecap="round" stroke-linejoin="round" stroke-miterlimit="10" x1="-576.473" y1="-1435.703" x2="-576.473" y2="-1487.309"/>
<polyline fill="none" stroke="#231F20" stroke-width="5" stroke-linecap="round" stroke-linejoin="round" stroke-miterlimit="10" points="
	-456.939,-1487.836 -456.939,-1436.051 -423.703,-1436.051 "/>
<polyline fill="none" stroke="#231F20" stroke-width="5" stroke-linecap="round" stroke-linejoin="round" stroke-miterlimit="10" points="
	-406.887,-1436.051 -406.887,-1487.836 -386.163,-1453.015 -365.439,-1487.836 -365.439,-1436.051 "/>
<polyline fill="none" stroke="#231F20" stroke-width="5" stroke-linecap="round" stroke-linejoin="round" stroke-miterlimit="10" points="
	-348.623,-1436.051 -348.623,-1487.836 -312.358,-1436.051 -312.358,-1487.836 "/>
<g>
	
		<line fill="none" stroke="#231F20" stroke-width="5" stroke-linecap="round" stroke-linejoin="round" stroke-miterlimit="10" x1="-28.93" y1="-1487.309" x2="12.473" y2="-1487.309"/>
	
		<line fill="none" stroke="#231F20" stroke-width="5" stroke-linecap="round" stroke-linejoin="round" stroke-miterlimit="10" x1="-8.229" y1="-1487.309" x2="-8.229" y2="-1435.703"/>
</g>
<polyline fill="none" stroke="#231F20" stroke-width="5" stroke-linecap="round" stroke-linejoin="round" stroke-miterlimit="10" points="
	81.907,-1487.836 102.632,-1436.051 123.354,-1487.836 "/>
<g>
	
		<line fill="none" stroke="#231F20" stroke-width="5" stroke-linecap="round" stroke-linejoin="round" stroke-miterlimit="10" x1="-983.855" y1="-1456.104" x2="-958.653" y2="-1456.104"/>
	
		<polyline fill="none" stroke="#231F20" stroke-width="5" stroke-linecap="round" stroke-linejoin="round" stroke-miterlimit="10" points="
		-991.881,-1436.051 -971.156,-1487.836 -950.432,-1436.051 	"/>
</g>
<g>
	
		<line fill="none" stroke="#231F20" stroke-width="5" stroke-linecap="round" stroke-linejoin="round" stroke-miterlimit="10" x1="208.955" y1="-1435.703" x2="243.759" y2="-1487.309"/>
	
		<line fill="none" stroke="#231F20" stroke-width="5" stroke-linecap="round" stroke-linejoin="round" stroke-miterlimit="10" x1="247.356" y1="-1435.703" x2="212.554" y2="-1487.309"/>
</g>
<g>
	
		<polyline fill="none" stroke="#231F20" stroke-width="5" stroke-linecap="round" stroke-linejoin="round" stroke-miterlimit="10" points="
		261.174,-1487.836 281.898,-1459.354 302.618,-1487.836 	"/>
	
		<line fill="none" stroke="#231F20" stroke-width="5" stroke-linecap="round" stroke-linejoin="round" stroke-miterlimit="10" x1="281.898" y1="-1435.952" x2="281.898" y2="-1459.354"/>
</g>
<g>
	
		<line fill="none" stroke="#231F20" stroke-width="5" stroke-linecap="round" stroke-linejoin="round" stroke-miterlimit="10" x1="-93.899" y1="-1436.142" x2="-107.103" y2="-1461.945"/>
	<path fill="none" stroke="#231F20" stroke-width="5" stroke-linecap="round" stroke-linejoin="round" stroke-miterlimit="10" d="
		M-128.388-1436.051v-51.785h21.285c7.149,0,12.953,5.799,12.953,12.944c0,7.146-5.804,12.946-12.953,12.946l0,0h-21.285"/>
</g>
<path fill="none" stroke="#231F20" stroke-width="5" stroke-linecap="round" stroke-linejoin="round" stroke-miterlimit="10" d="
	M-237.492-1436.051v-51.785h21.285c7.151,0,12.952,5.799,12.952,12.944c0,7.146-5.801,12.946-12.952,12.946l0,0h-21.285"/>
<path fill="none" stroke="#231F20" stroke-width="5" stroke-linecap="round" stroke-linejoin="round" stroke-miterlimit="10" d="
	M-933.615-1464.533h20.271c7.862,0,14.244,6.38,14.244,14.239c0,7.862-6.382,14.243-14.244,14.243l0,0h-20.271v-51.785h20.271
	c6.433,0,11.657,5.221,11.657,11.65c0,6.434-5.226,11.652-11.657,11.652l0,0"/>
<polyline fill="none" stroke="#231F20" stroke-width="5" stroke-linecap="round" stroke-linejoin="round" stroke-miterlimit="10" points="
	140.171,-1487.836 153.163,-1436.051 166.154,-1478.416 179.146,-1436.051 192.139,-1487.836 "/>
<path fill="none" stroke="#231F20" stroke-width="5" stroke-linecap="round" stroke-linejoin="round" stroke-miterlimit="10" d="
	M-559.656-1453.483c0,9.62,7.813,17.433,17.438,17.433c9.628,0,17.44-7.813,17.44-17.433l0,0v-34.353"/>
<path fill="none" stroke="#231F20" stroke-width="5" stroke-linecap="round" stroke-linejoin="round" stroke-miterlimit="10" d="
	M65.091-1487.836v33.89c0,9.879-8.021,17.896-17.901,17.896s-17.898-8.017-17.898-17.896l0,0v-33.89"/>
<path fill="none" stroke="#231F20" stroke-width="5" stroke-linecap="round" stroke-linejoin="round" stroke-miterlimit="10" d="
	M-848.264-1480.345c-3.521-4.716-9.062-7.491-14.952-7.491c-5.883,0-11.427,2.775-14.951,7.491l0,0
	c-3.971,5.313-6.116,11.768-6.116,18.399c0,6.633,2.146,13.092,6.116,18.404l0,0c3.524,4.713,9.068,7.49,14.951,7.49
	c5.892,0,11.432-2.777,14.952-7.49l0,0"/>
<path fill="none" stroke="#231F20" stroke-width="5" stroke-linecap="round" stroke-linejoin="round" stroke-miterlimit="10" d="
	M-815.131-1487.836h-15.315v51.785h15.315c5.954,0,11.51-2.997,14.78-7.97l0,0c3.506-5.321,5.369-11.551,5.369-17.925
	c0-6.371-1.863-12.602-5.369-17.924v-0.002C-803.621-1484.843-809.177-1487.836-815.131-1487.836L-815.131-1487.836z"/>
<polyline fill="none" stroke="#231F20" stroke-width="5" stroke-linecap="round" stroke-linejoin="round" stroke-miterlimit="10" points="
	318.284,-1487.83 350.844,-1487.836 317.437,-1436.051 351.693,-1436.051 "/>
<path fill="none" stroke="#231F20" stroke-width="5" stroke-linecap="round" stroke-linejoin="round" stroke-miterlimit="10" d="
	M-260.044-1480.102c-3.401-4.848-8.955-7.734-14.884-7.734c-5.924,0-11.477,2.887-14.88,7.734l0,0
	c-3.733,5.321-5.734,11.661-5.734,18.156c0,6.5,2.001,12.837,5.734,18.155l0,0c3.403,4.849,8.956,7.739,14.88,7.739
	c5.929,0,11.481-2.891,14.884-7.739l0,0c3.731-5.318,5.734-11.655,5.734-18.155C-254.309-1468.44-256.312-1474.78-260.044-1480.102
	L-260.044-1480.102z"/>
<g>
	
		<line fill="none" stroke="#333333" stroke-width="5" stroke-linecap="round" stroke-linejoin="round" stroke-miterlimit="10" x1="-122.63" y1="-1715.156" x2="-120.123" y2="-1722.044"/>
	<g>
		
			<polyline fill="none" stroke="#231F20" stroke-width="5" stroke-linecap="round" stroke-linejoin="round" stroke-miterlimit="10" points="
			-140.829,-1722.248 -174.063,-1722.248 -174.063,-1774.033 -140.829,-1774.033 		"/>
		
			<line fill="none" stroke="#231F20" stroke-width="5" stroke-linecap="round" stroke-linejoin="round" stroke-miterlimit="10" x1="-174.063" y1="-1750.701" x2="-150.66" y2="-1750.701"/>
	</g>
	<g>
		
			<polyline fill="none" stroke="#231F20" stroke-width="5" stroke-linecap="round" stroke-linejoin="round" stroke-miterlimit="10" points="
			-491.153,-1722.248 -524.388,-1722.248 -524.388,-1774.033 -491.153,-1774.033 		"/>
		
			<line fill="none" stroke="#231F20" stroke-width="5" stroke-linecap="round" stroke-linejoin="round" stroke-miterlimit="10" x1="-524.388" y1="-1750.701" x2="-500.984" y2="-1750.701"/>
	</g>
	
		<polyline fill="none" stroke="#231F20" stroke-width="5" stroke-linecap="round" stroke-linejoin="round" stroke-miterlimit="10" points="
		-476.646,-1774.033 -476.646,-1722.248 -443.41,-1722.248 	"/>
	
		<polyline fill="none" stroke="#231F20" stroke-width="5" stroke-linecap="round" stroke-linejoin="round" stroke-miterlimit="10" points="
		-580.342,-1722.248 -580.342,-1774.033 -559.619,-1739.212 -538.895,-1774.033 -538.895,-1722.248 	"/>
	
		<polyline fill="none" stroke="#231F20" stroke-width="5" stroke-linecap="round" stroke-linejoin="round" stroke-miterlimit="10" points="
		-224.835,-1722.248 -224.835,-1774.033 -188.571,-1722.248 -188.571,-1774.033 	"/>
	<g>
		
			<line fill="none" stroke="#231F20" stroke-width="5" stroke-linecap="round" stroke-linejoin="round" stroke-miterlimit="10" x1="-239.344" y1="-1722.339" x2="-252.546" y2="-1748.143"/>
		<path fill="none" stroke="#231F20" stroke-width="5" stroke-linecap="round" stroke-linejoin="round" stroke-miterlimit="10" d="
			M-273.831-1722.248v-51.785h21.285c7.148,0,12.953,5.799,12.953,12.944s-5.805,12.946-12.953,12.946l0,0h-21.285"/>
	</g>
	<path fill="none" stroke="#231F20" stroke-width="5" stroke-linecap="round" stroke-linejoin="round" stroke-miterlimit="10" d="
		M-428.902-1750.73h20.271c7.861,0,14.243,6.38,14.243,14.239c0,7.862-6.382,14.243-14.243,14.243l0,0h-20.271v-51.785h20.271
		c6.432,0,11.656,5.221,11.656,11.65c0,6.434-5.226,11.652-11.656,11.652l0,0"/>
	<path fill="none" stroke="#231F20" stroke-width="5" stroke-linecap="round" stroke-linejoin="round" stroke-miterlimit="10" d="
		M-288.338-1774.033v33.89c0,9.879-8.021,17.896-17.901,17.896s-17.899-8.017-17.899-17.896l0,0v-33.89"/>
	<path fill="none" stroke="#231F20" stroke-width="5" stroke-linecap="round" stroke-linejoin="round" stroke-miterlimit="10" d="
		M-344.382-1766.299c-3.401-4.848-8.955-7.734-14.884-7.734c-5.924,0-11.477,2.887-14.88,7.734l0,0
		c-3.733,5.321-5.734,11.661-5.734,18.156c0,6.5,2.001,12.837,5.734,18.155l0,0c3.403,4.849,8.956,7.739,14.88,7.739
		c5.929,0,11.481-2.891,14.884-7.739l0,0c3.731-5.318,5.734-11.655,5.734-18.155
		C-338.646-1754.638-340.649-1760.978-344.382-1766.299L-344.382-1766.299z"/>
</g>
<g>
	
		<line fill="none" stroke="#231F20" stroke-width="5" stroke-linecap="round" stroke-linejoin="round" stroke-miterlimit="10" x1="-158.885" y1="-1445.303" x2="-149.885" y2="-1435.703"/>
	<path fill="none" stroke="#231F20" stroke-width="5" stroke-linecap="round" stroke-linejoin="round" stroke-miterlimit="10" d="
		M-151.937-1480.102c-3.403-4.848-8.959-7.734-14.884-7.734c-5.927,0-11.479,2.887-14.882,7.734l0,0
		c-3.732,5.321-5.736,11.661-5.736,18.156c0,6.5,2.004,12.837,5.736,18.155l0,0c3.4,4.849,8.955,7.739,14.882,7.739
		c5.925,0,11.479-2.891,14.884-7.739l0,0c3.73-5.318,5.732-11.655,5.732-18.155C-146.204-1468.44-148.206-1474.78-151.937-1480.102
		L-151.937-1480.102z"/>
</g>
<g>
	
		<line fill="none" stroke="#231F20" stroke-width="5" stroke-linecap="round" stroke-linejoin="round" stroke-miterlimit="10" x1="-507.961" y1="-1487.309" x2="-507.961" y2="-1435.703"/>
	
		<line fill="none" stroke="#231F20" stroke-width="5" stroke-linecap="round" stroke-linejoin="round" stroke-miterlimit="10" x1="-507.961" y1="-1456.104" x2="-474.358" y2="-1487.309"/>
	
		<line fill="none" stroke="#231F20" stroke-width="5" stroke-linecap="round" stroke-linejoin="round" stroke-miterlimit="10" x1="-473.757" y1="-1435.703" x2="-499.561" y2="-1463.905"/>
</g>
<path fill="none" stroke="#231F20" stroke-width="5" stroke-linecap="round" stroke-linejoin="round" stroke-miterlimit="10" d="
	M-43.367-1480.585c-0.669-1.307-1.646-2.437-2.839-3.29l0,0c-3.598-2.577-7.908-3.961-12.332-3.961s-8.735,1.384-12.33,3.961h-0.003
	c-2.423,1.734-3.864,4.533-3.864,7.515c0,2.984,1.441,5.781,3.864,7.514h0.003c2.54,1.823,5.453,3.059,8.527,3.619l0,0l8.447,1.541
	c3.758,0.685,7.321,2.195,10.427,4.419l0,0c2.965,2.122,4.721,5.546,4.721,9.188c0,3.644-1.756,7.063-4.721,9.186l0,0
	c-4.396,3.149-9.665,4.843-15.071,4.843s-10.678-1.693-15.073-4.843l0,0c-1.459-1.045-2.646-2.426-3.472-4.021l0,0"/>
<g>
	
		<line fill="none" stroke="#231F20" stroke-width="5" stroke-linecap="round" stroke-linejoin="round" stroke-miterlimit="10" x1="-223.549" y1="-1632.092" x2="-223.549" y2="-1683.697"/>
	
		<polyline fill="none" stroke="#231F20" stroke-width="5" stroke-linecap="round" stroke-linejoin="round" stroke-miterlimit="10" points="
		-271.414,-1683.877 -271.414,-1632.092 -238.178,-1632.092 	"/>
	<g>
		
			<line fill="none" stroke="#231F20" stroke-width="5" stroke-linecap="round" stroke-linejoin="round" stroke-miterlimit="10" x1="-431.641" y1="-1683.697" x2="-390.239" y2="-1683.697"/>
		
			<line fill="none" stroke="#231F20" stroke-width="5" stroke-linecap="round" stroke-linejoin="round" stroke-miterlimit="10" x1="-410.94" y1="-1683.697" x2="-410.94" y2="-1632.092"/>
	</g>
	<g>
		
			<line fill="none" stroke="#231F20" stroke-width="5" stroke-linecap="round" stroke-linejoin="round" stroke-miterlimit="10" x1="-200.895" y1="-1652.146" x2="-175.692" y2="-1652.146"/>
		
			<polyline fill="none" stroke="#231F20" stroke-width="5" stroke-linecap="round" stroke-linejoin="round" stroke-miterlimit="10" points="
			-208.92,-1632.092 -188.195,-1683.877 -167.471,-1632.092 		"/>
	</g>
	<g>
		
			<line fill="none" stroke="#231F20" stroke-width="5" stroke-linecap="round" stroke-linejoin="round" stroke-miterlimit="10" x1="-319.468" y1="-1652.146" x2="-294.265" y2="-1652.146"/>
		
			<polyline fill="none" stroke="#231F20" stroke-width="5" stroke-linecap="round" stroke-linejoin="round" stroke-miterlimit="10" points="
			-327.492,-1632.092 -306.768,-1683.877 -286.043,-1632.092 		"/>
	</g>
	<g>
		
			<line fill="none" stroke="#231F20" stroke-width="5" stroke-linecap="round" stroke-linejoin="round" stroke-miterlimit="10" x1="-573.089" y1="-1652.146" x2="-547.887" y2="-1652.146"/>
		
			<polyline fill="none" stroke="#231F20" stroke-width="5" stroke-linecap="round" stroke-linejoin="round" stroke-miterlimit="10" points="
			-581.115,-1632.092 -560.39,-1683.877 -539.666,-1632.092 		"/>
	</g>
	<g>
		
			<line fill="none" stroke="#231F20" stroke-width="5" stroke-linecap="round" stroke-linejoin="round" stroke-miterlimit="10" x1="-341.121" y1="-1632.183" x2="-354.324" y2="-1657.986"/>
		<path fill="none" stroke="#231F20" stroke-width="5" stroke-linecap="round" stroke-linejoin="round" stroke-miterlimit="10" d="
			M-375.609-1632.092v-51.785h21.285c7.148,0,12.953,5.799,12.953,12.944c0,7.146-5.804,12.946-12.953,12.946l0,0h-21.285"/>
	</g>
	<path fill="none" stroke="#231F20" stroke-width="5" stroke-linecap="round" stroke-linejoin="round" stroke-miterlimit="10" d="
		M-493.236-1683.877v33.89c0,9.879-8.02,17.896-17.901,17.896c-9.881,0-17.898-8.017-17.898-17.896l0,0v-33.89"/>
	<path fill="none" stroke="#231F20" stroke-width="5" stroke-linecap="round" stroke-linejoin="round" stroke-miterlimit="10" d="
		M-444.891-1676.626c-0.669-1.307-1.646-2.437-2.839-3.29l0,0c-3.597-2.577-7.908-3.961-12.332-3.961s-8.734,1.384-12.33,3.961
		h-0.003c-2.423,1.734-3.863,4.533-3.863,7.515c0,2.984,1.44,5.781,3.863,7.514h0.003c2.54,1.823,5.453,3.059,8.527,3.619l0,0
		l8.448,1.541c3.758,0.685,7.32,2.195,10.426,4.419l0,0c2.965,2.122,4.721,5.546,4.721,9.188c0,3.644-1.756,7.063-4.721,9.186l0,0
		c-4.396,3.149-9.665,4.843-15.071,4.843s-10.678-1.693-15.073-4.843l0,0c-1.459-1.045-2.646-2.426-3.472-4.021l0,0"/>
</g>
<line fill="none" stroke="#333333" stroke-linecap="round" stroke-linejoin="round" stroke-miterlimit="10" x1="318.29" y1="113.855" x2="318.588" y2="113.037"/>
<polyline fill="none" stroke="#231F20" stroke-linecap="round" stroke-linejoin="round" stroke-miterlimit="10" points="
	316.127,113.011 312.176,113.011 312.176,106.855 316.127,106.855 "/>
<line fill="none" stroke="#231F20" stroke-linecap="round" stroke-linejoin="round" stroke-miterlimit="10" x1="312.176" y1="109.628" x2="314.956" y2="109.628"/>
<polyline fill="none" stroke="#231F20" stroke-linecap="round" stroke-linejoin="round" stroke-miterlimit="10" points="
	274.48,113.011 270.529,113.011 270.529,106.855 274.48,106.855 "/>
<line fill="none" stroke="#231F20" stroke-linecap="round" stroke-linejoin="round" stroke-miterlimit="10" x1="270.529" y1="109.628" x2="273.313" y2="109.628"/>
<polyline fill="none" stroke="#231F20" stroke-linecap="round" stroke-linejoin="round" stroke-miterlimit="10" points="
	276.205,106.855 276.205,113.011 280.156,113.011 "/>
<polyline fill="none" stroke="#231F20" stroke-linecap="round" stroke-linejoin="round" stroke-miterlimit="10" points="
	263.877,113.011 263.877,106.855 266.34,110.996 268.805,106.855 268.805,113.011 "/>
<polyline fill="none" stroke="#231F20" stroke-linecap="round" stroke-linejoin="round" stroke-miterlimit="10" points="
	306.139,113.011 306.139,106.855 310.45,113.011 310.45,106.855 "/>
<line fill="none" stroke="#231F20" stroke-linecap="round" stroke-linejoin="round" stroke-miterlimit="10" x1="304.413" y1="113.001" x2="302.846" y2="109.933"/>
<path fill="none" stroke="#231F20" stroke-linecap="round" stroke-linejoin="round" stroke-miterlimit="10" d="M300.314,113.011
	v-6.156h2.531c0.85,0,1.539,0.689,1.539,1.539s-0.689,1.539-1.539,1.539l0,0h-2.531"/>
<path fill="none" stroke="#231F20" stroke-linecap="round" stroke-linejoin="round" stroke-miterlimit="10" d="M281.881,109.625
	h2.41c0.934,0,1.692,0.758,1.692,1.692s-0.76,1.692-1.692,1.692l0,0h-2.41v-6.155h2.41c0.764,0,1.385,0.621,1.385,1.385
	c0,0.765-0.621,1.386-1.385,1.386l0,0"/>
<path fill="none" stroke="#231F20" stroke-linecap="round" stroke-linejoin="round" stroke-miterlimit="10" d="M298.59,106.855
	v4.029c0,1.174-0.953,2.127-2.125,2.127c-1.178,0-2.131-0.953-2.131-2.127l0,0v-4.029"/>
<path fill="none" stroke="#231F20" stroke-linecap="round" stroke-linejoin="round" stroke-miterlimit="10" d="M291.928,107.774
	c-0.404-0.576-1.064-0.92-1.768-0.92c-0.705,0-1.365,0.344-1.771,0.92l0,0c-0.445,0.634-0.684,1.388-0.684,2.158
	c0,0.772,0.237,1.524,0.684,2.157l0,0c0.404,0.576,1.064,0.92,1.771,0.92c0.702,0,1.362-0.344,1.768-0.92l0,0
	c0.443-0.633,0.682-1.385,0.682-2.157C292.609,109.162,292.371,108.408,291.928,107.774L291.928,107.774z"/>
<line fill="none" stroke="#231F20" stroke-linecap="round" stroke-linejoin="round" stroke-miterlimit="10" x1="367.225" y1="113.011" x2="367.225" y2="106.876"/>
<polyline fill="none" stroke="#231F20" stroke-linecap="round" stroke-linejoin="round" stroke-miterlimit="10" points="
	361.532,106.855 361.532,113.011 365.484,113.011 "/>
<line fill="none" stroke="#231F20" stroke-linecap="round" stroke-linejoin="round" stroke-miterlimit="10" x1="342.486" y1="106.876" x2="347.406" y2="106.876"/>
<line fill="none" stroke="#231F20" stroke-linecap="round" stroke-linejoin="round" stroke-miterlimit="10" x1="344.945" y1="106.876" x2="344.945" y2="113.011"/>
<line fill="none" stroke="#231F20" stroke-linecap="round" stroke-linejoin="round" stroke-miterlimit="10" x1="369.915" y1="111.187" x2="372.911" y2="111.187"/>
<polyline fill="none" stroke="#231F20" stroke-linecap="round" stroke-linejoin="round" stroke-miterlimit="10" points="
	368.961,113.011 371.426,106.855 373.889,113.011 "/>
<line fill="none" stroke="#231F20" stroke-linecap="round" stroke-linejoin="round" stroke-miterlimit="10" x1="355.82" y1="111.187" x2="358.816" y2="111.187"/>
<polyline fill="none" stroke="#231F20" stroke-linecap="round" stroke-linejoin="round" stroke-miterlimit="10" points="
	354.865,113.011 357.329,106.855 359.793,113.011 "/>
<line fill="none" stroke="#231F20" stroke-linecap="round" stroke-linejoin="round" stroke-miterlimit="10" x1="325.668" y1="111.187" x2="328.663" y2="111.187"/>
<polyline fill="none" stroke="#231F20" stroke-linecap="round" stroke-linejoin="round" stroke-miterlimit="10" points="
	324.715,113.011 327.18,106.855 329.643,113.011 "/>
<line fill="none" stroke="#231F20" stroke-linecap="round" stroke-linejoin="round" stroke-miterlimit="10" x1="353.243" y1="113.001" x2="351.676" y2="109.933"/>
<path fill="none" stroke="#231F20" stroke-linecap="round" stroke-linejoin="round" stroke-miterlimit="10" d="M349.145,113.011
	v-6.156h2.531c0.85,0,1.539,0.689,1.539,1.539s-0.689,1.539-1.539,1.539l0,0h-2.531"/>
<path fill="none" stroke="#231F20" stroke-linecap="round" stroke-linejoin="round" stroke-miterlimit="10" d="M335.161,106.855
	v4.029c0,1.174-0.952,2.127-2.127,2.127c-1.176,0-2.129-0.953-2.129-2.127l0,0v-4.029"/>
<path fill="none" stroke="#231F20" stroke-linecap="round" stroke-linejoin="round" stroke-miterlimit="10" d="M340.909,107.718
	c-0.08-0.156-0.196-0.291-0.338-0.393l0,0c-0.428-0.306-0.938-0.472-1.467-0.472c-0.525,0-1.037,0.166-1.467,0.472l0,0
	c-0.287,0.207-0.459,0.538-0.459,0.895c0,0.354,0.172,0.686,0.459,0.893l0,0c0.303,0.217,0.649,0.363,1.016,0.43l0,0l1.004,0.185
	c0.447,0.08,0.871,0.262,1.24,0.524l0,0c0.354,0.252,0.561,0.658,0.561,1.092c0,0.435-0.206,0.841-0.561,1.093l0,0
	c-0.523,0.375-1.15,0.575-1.793,0.575s-1.271-0.2-1.791-0.575l0,0c-0.172-0.123-0.314-0.287-0.414-0.479l0,0"/>
<path fill="none" stroke="#000000" stroke-linecap="round" stroke-linejoin="round" stroke-miterlimit="10" d="M93.211,113.062
	h-4.213c0-0.805,0.379-1.561,1.022-2.041l0,0c0.236-0.178,0.491-0.328,0.76-0.451l0,0l1.314-0.604
	c0.168-0.078,0.329-0.176,0.477-0.291l0,0c0.285-0.225,0.452-0.568,0.452-0.932c0-0.365-0.167-0.709-0.452-0.935l0,0
	c-0.419-0.328-0.937-0.506-1.467-0.506c-0.533,0-1.049,0.178-1.468,0.506l0,0c-0.285,0.226-0.453,0.567-0.453,0.935l0,0"/>
<path fill="none" stroke="#000000" stroke-linecap="round" stroke-linejoin="round" stroke-miterlimit="10" d="M98.463,108.188
	c-0.364-0.554-0.982-0.888-1.645-0.888c-0.661,0-1.279,0.334-1.644,0.888l0,0c-0.39,0.592-0.597,1.285-0.597,1.992
	c0,0.709,0.207,1.401,0.597,1.993l0,0c0.363,0.554,0.98,0.888,1.644,0.888c0.661,0,1.279-0.334,1.645-0.888l0,0
	c0.389-0.592,0.596-1.284,0.596-1.993C99.059,109.474,98.852,108.78,98.463,108.188L98.463,108.188z"/>
<path fill="none" stroke="#000000" stroke-linecap="round" stroke-linejoin="round" stroke-miterlimit="10" d="M104.616,108.188
	c-0.363-0.554-0.981-0.888-1.645-0.888c-0.661,0-1.279,0.334-1.644,0.888l0,0c-0.39,0.592-0.597,1.285-0.597,1.992
	c0,0.709,0.207,1.401,0.597,1.993l0,0c0.363,0.554,0.981,0.888,1.644,0.888s1.28-0.334,1.645-0.888l0,0
	c0.39-0.592,0.598-1.284,0.598-1.993C105.214,109.474,105.006,108.78,104.616,108.188L104.616,108.188z"/>
<path fill="none" stroke="#000000" stroke-linecap="round" stroke-linejoin="round" stroke-miterlimit="10" d="M110.679,109.199
	c0-1.048-0.849-1.896-1.896-1.896c-1.048,0-1.897,0.85-1.897,1.896c0,1.045,0.851,1.895,1.897,1.895
	C109.829,111.093,110.679,110.246,110.679,109.199"/>
<path fill="none" stroke="#000000" stroke-linecap="round" stroke-linejoin="round" stroke-miterlimit="10" d="M107.14,112.175
	c0.363,0.553,0.981,0.887,1.645,0.887c0.662,0,1.279-0.334,1.644-0.887l0,0c0.39-0.592,0.597-1.285,0.597-1.994
	c0-0.707-0.207-1.4-0.597-1.992l0,0c-0.363-0.553-0.981-0.887-1.644-0.887"/>
<path d="M115.426,17.349c-2.858,0-5.565,1.283-7.374,3.493c-12.746-5.805-26.589-8.809-40.595-8.809
	c-14.007,0-27.852,3.004-40.597,8.809c-1.811-2.21-4.518-3.493-7.375-3.493c-5.26,0-9.528,4.268-9.528,9.527
	c0,4.667,3.382,8.646,7.988,9.4h-0.001c0.884,9.148,3.052,18.125,6.438,26.669c-1.881,4.262-2.853,8.866-2.853,13.523
	c0,2.52,0.283,5.029,0.848,7.484c0.15,0.662,0.633,1.203,1.272,1.434c3.657,1.302,7.512,1.968,11.394,1.968
	c1.084,0,2.167-0.054,3.248-0.155c5.786,7.393,12.604,13.918,20.249,19.368l0,0c-0.406,1.076-0.615,2.22-0.615,3.369
	c0,5.258,4.27,9.524,9.531,9.524c5.26,0,9.527-4.268,9.527-9.524c0-1.149-0.208-2.293-0.612-3.369l0,0
	c7.643-5.45,14.463-11.976,20.249-19.368c1.078,0.104,2.162,0.155,3.248,0.155c3.881,0,7.733-0.666,11.391-1.968
	c0.642-0.229,1.122-0.771,1.272-1.434c0.563-2.455,0.849-4.966,0.849-7.484c0-4.657-0.971-9.264-2.852-13.523
	c3.386-8.544,5.552-17.521,6.438-26.669l0,0c4.607-0.755,7.989-4.733,7.989-9.4C124.956,21.616,120.686,17.349,115.426,17.349z
	 M74.208,103.214c-1.787-1.795-4.217-2.805-6.751-2.805c-2.536,0-4.967,1.01-6.755,2.805c-6.674-4.779-12.69-10.414-17.897-16.76
	c1.229-0.289,2.441-0.646,3.631-1.068c0.643-0.229,1.121-0.77,1.273-1.432l0,0c0.563-2.457,0.847-4.967,0.847-7.484
	c0-1.082-0.052-2.162-0.156-3.238c0.861,0.18,1.729,0.325,2.603,0.436v10.356c0,3.34,2.712,6.052,6.053,6.052H77.86
	c3.342,0,6.055-2.711,6.055-6.052V73.667c0.872-0.11,1.739-0.256,2.6-0.437c-0.104,1.076-0.158,2.156-0.158,3.237
	c0,2.52,0.287,5.029,0.849,7.484c0.153,0.662,0.632,1.203,1.274,1.432c1.19,0.425,2.401,0.781,3.632,1.068
	C86.9,92.8,80.883,98.435,74.208,103.214z M110.688,49.413c-0.085-0.219-0.177-0.438-0.271-0.652
	c-1.843-4.178-5.983-6.873-10.548-6.873c-4.321,0-8.278,2.414-10.253,6.256c-0.226-0.453-0.459-0.897-0.703-1.338
	c1.443-1.975,2.223-4.357,2.223-6.803c0-6.362-5.165-11.526-11.53-11.526c-6.361,0-11.528,5.164-11.528,11.526
	c0,2.445,0.777,4.828,2.225,6.803c-1.195,2.154-2.149,4.434-2.844,6.796l0,0c-0.696-2.362-1.652-4.642-2.844-6.796l0,0
	c1.443-1.975,2.223-4.357,2.223-6.803c0-6.362-5.167-11.526-11.531-11.526c-1.241,0-2.475,0.201-3.654,0.595
	c-1.443-3.131-4.577-5.136-8.024-5.136c-4.879,0-8.84,3.958-8.84,8.837c0,3.332,1.877,6.383,4.853,7.887l0,0
	c0.278,0.141,0.587,0.214,0.899,0.214c1.1,0,1.991-0.893,1.991-1.993c0-0.459-0.158-0.905-0.45-1.26l0,0
	c-0.351-0.428-0.54-0.963-0.54-1.514c0-1.318,1.069-2.389,2.39-2.389c0.512,0,1.011,0.164,1.424,0.47l0,0
	c-1.031,1.765-1.576,3.772-1.576,5.815c0,2.445,0.779,4.828,2.224,6.803l0,0c-0.243,0.44-0.478,0.885-0.702,1.338
	c-1.977-3.842-5.933-6.256-10.252-6.256c-4.829,0-9.146,3.008-10.817,7.536c-1.086-4.386-1.852-8.845-2.295-13.341
	c4.176-1.107,7.084-4.889,7.084-9.207c0-0.841-0.11-1.677-0.33-2.487c12.181-5.517,25.398-8.371,38.771-8.371
	c13.372,0,26.59,2.854,38.77,8.371v-0.001c-0.22,0.812-0.33,1.647-0.33,2.488c0,4.318,2.907,8.1,7.084,9.207
	C112.537,40.575,111.771,45.03,110.688,49.413z"/>
<path fill="#FFFFFF" d="M70.068,40.003c0-5.264,4.273-9.534,9.535-9.534c5.269,0,9.539,4.271,9.539,9.534l0,0
	c0,3.695-2.136,7.058-5.48,8.631l0,0c-0.16-0.617-0.615-1.112-1.217-1.32l0,0c-0.911-0.318-1.874-0.479-2.842-0.479
	c-0.963,0-1.925,0.16-2.836,0.479l0,0c-0.6,0.208-1.057,0.703-1.214,1.32l0,0C72.206,47.061,70.068,43.698,70.068,40.003
	L70.068,40.003z"/>
<path d="M75.969,44.589c-0.154-0.089-0.251-0.253-0.251-0.431c0-0.275,0.224-0.499,0.499-0.499c0.088,0,0.174,0.023,0.248,0.067l0,0
	c0.957,0.551,2.039,0.842,3.139,0.842c1.104,0,2.188-0.291,3.146-0.842l0,0c0.073-0.044,0.159-0.067,0.247-0.067
	c0.274,0,0.499,0.224,0.499,0.499c0,0.178-0.097,0.342-0.249,0.431l0,0c-1.106,0.64-2.362,0.976-3.643,0.976
	C78.329,45.564,77.074,45.229,75.969,44.589L75.969,44.589z"/>
<path fill="#FFFFFF" d="M90.333,53.415c0-1.382,0.299-2.745,0.878-3.998l0,0c1.521,0.939,3.272,1.437,5.061,1.437
	c1.521,0,3.018-0.358,4.371-1.048l0,0c0.172-0.088,0.364-0.134,0.559-0.134c0.678,0,1.229,0.55,1.229,1.228h-0.002v7.097
	c0,1.601-0.197,3.194-0.589,4.747l0,0c-0.648,0.136-1.31,0.205-1.971,0.205C94.604,62.948,90.333,58.677,90.333,53.415
	L90.333,53.415z"/>
<path fill="#FFFFFF" d="M46.069,42.378c0.098,0.004,0.19,0.006,0.287,0.006c3.108,0,5.7-2.373,5.975-5.468l0,0
	c1.639,1.005,3.522,1.537,5.443,1.537c2.286,0,4.51-0.753,6.324-2.142l0,0c0.491,1.169,0.744,2.424,0.744,3.691l0,0
	c0,5.262-4.274,9.534-9.538,9.534C50.953,49.537,47.153,46.591,46.069,42.378L46.069,42.378z"/>
<path fill="#FFFFFF" d="M38.713,51.392c-0.736-1.336-2.144-2.166-3.669-2.166c-1.639,0-3.126,0.953-3.809,2.441l0,0l-5.105-1.642
	c1.407-3.7,4.954-6.146,8.914-6.146c3.75,0,7.15,2.197,8.691,5.615l0,0c-0.461-0.179-0.952-0.27-1.446-0.27
	C40.786,49.226,39.408,50.061,38.713,51.392L38.713,51.392z"/>
<path fill="#FFFFFF" d="M31.85,53.415c0-1.763,1.433-3.193,3.194-3.193s3.193,1.431,3.193,3.193l0,0
	c0,1.762-1.432,3.191-3.193,3.191S31.85,55.177,31.85,53.415L31.85,53.415z"/>
<path fill="#FFFFFF" d="M39.254,53.255c0-1.674,1.358-3.033,3.035-3.033c1.674,0,3.032,1.359,3.032,3.033l0,0
	c0,1.674-1.358,3.033-3.032,3.033C40.613,56.288,39.254,54.929,39.254,53.255L39.254,53.255z"/>
<path fill="#FFFFFF" d="M25.506,53.415c0-0.825,0.106-1.646,0.318-2.441l0,0l5.104,1.642c-0.051,0.263-0.076,0.531-0.076,0.8l0,0
	c0,2.312,1.877,4.188,4.19,4.188c1.593,0,3.049-0.902,3.755-2.33l0,0c0.721,1.245,2.051,2.012,3.49,2.012
	c0.555,0,1.104-0.115,1.612-0.338H43.9c-1.445,3.624-4.954,6.002-8.856,6.002C29.779,62.948,25.506,58.677,25.506,53.415
	L25.506,53.415z"/>
<path fill="#FFFFFF" d="M54.986,84.024V63.226c0-1.142,0.927-2.066,2.067-2.066l0,0h20.805c1.142,0,2.066,0.925,2.066,2.066l0,0
	v20.799c0,1.141-0.926,2.066-2.066,2.066l0,0H57.054C55.912,86.091,54.986,85.166,54.986,84.024L54.986,84.024z"/>
<polygon points="62.063,83.208 66.635,73.521 62.049,73.521 65.938,64.013 72.144,64.013 68.229,71.033 72.588,71.033 "/>
<path fill="#29D7FF" d="M78.251,52.856c-0.89-1.02-1.491-2.257-1.746-3.584l0,0c-0.009-0.057-0.016-0.113-0.016-0.17
	c0-0.383,0.242-0.723,0.604-0.849l0,0c0.809-0.281,1.657-0.424,2.512-0.424c0.856,0,1.707,0.143,2.515,0.424l0,0
	c0.36,0.126,0.604,0.466,0.604,0.849c0,0.057-0.004,0.113-0.017,0.17l0,0c-0.255,1.327-0.855,2.564-1.744,3.584l0,0
	c-0.342,0.393-0.836,0.617-1.356,0.617C79.087,53.474,78.592,53.249,78.251,52.856L78.251,52.856z"/>
<path fill="#29D7FF" d="M109.883,26.876c0-3.061,2.483-5.543,5.543-5.543c3.059,0,5.544,2.482,5.544,5.543l0,0
	c0,3.058-2.485,5.541-5.544,5.541C112.366,32.417,109.883,29.934,109.883,26.876L109.883,26.876z"/>
<path fill="#29D7FF" d="M13.941,26.876c0-3.061,2.484-5.543,5.545-5.543c3.062,0,5.545,2.482,5.545,5.543l0,0
	c0,3.058-2.483,5.541-5.545,5.541C16.425,32.417,13.941,29.934,13.941,26.876L13.941,26.876z"/>
<path fill="#29D7FF" d="M40.537,38.88c-2.307-1.164-3.761-3.525-3.761-6.107c0-3.779,3.068-6.845,6.849-6.845
	c3.021,0,5.687,1.981,6.557,4.874l0,0c-1.123,0.625-2.119,1.449-2.944,2.433l0,0c-0.833-0.958-2.04-1.509-3.31-1.509
	c-2.419,0-4.383,1.962-4.383,4.381C39.545,37.116,39.896,38.099,40.537,38.88L40.537,38.88z"/>
<path fill="#29D7FF" d="M100.508,68.509c1.909-3.175,2.919-6.809,2.919-10.512l0,0v-7.098c0-1.227-0.998-2.223-2.227-2.223
	c-0.352,0-0.698,0.082-1.011,0.242l0,0c-1.214,0.617-2.558,0.938-3.919,0.938c-1.625,0-3.22-0.458-4.596-1.322l0,0
	c1.722-2.886,4.832-4.654,8.193-4.654c3.776,0,7.196,2.229,8.725,5.685l0,0c0.792,1.793,1.201,3.732,1.201,5.693
	C109.795,61.187,106.082,66.483,100.508,68.509L100.508,68.509z"/>
<path fill="#29D7FF" d="M45.866,41.364c-0.064-0.451-0.098-0.906-0.098-1.361l0,0c0-5.264,4.271-9.534,9.535-9.534
	c3.473,0,6.672,1.887,8.349,4.925l0,0c-1.668,1.336-3.741,2.063-5.879,2.063c-1.736,0-3.44-0.481-4.923-1.39l0,0
	c-0.156-0.096-0.337-0.147-0.521-0.147c-0.517,0-0.947,0.395-0.992,0.909l0,0c-0.229,2.58-2.391,4.559-4.981,4.559
	C46.192,41.388,46.029,41.38,45.866,41.364L45.866,41.364z"/>
<path fill="#29D7FF" d="M83.912,71.66v-8.435c0-3.34-2.711-6.052-6.055-6.052l0,0l-9.218,0.001c0.646-3.402,1.848-6.674,3.563-9.685
	h-0.001c0.972,0.961,2.119,1.724,3.384,2.245l0,0c0.314,1.397,0.972,2.693,1.914,3.775l0,0c0.529,0.609,1.298,0.959,2.105,0.959
	c0.809,0,1.579-0.35,2.108-0.959h-0.001c0.94-1.082,1.599-2.378,1.914-3.775l0,0c1.264-0.521,2.414-1.284,3.387-2.245l0,0
	c0.604,1.067,1.148,2.171,1.627,3.302l0,0c-0.201,0.86-0.304,1.739-0.304,2.623c0,2.445,0.781,4.828,2.224,6.803l0,0
	c-1.881,3.393-3.158,7.085-3.775,10.916l0,0C85.835,71.353,84.876,71.528,83.912,71.66L83.912,71.66z"/>
<path fill="#29D7FF" d="M89.146,83.509c-0.53-2.309-0.798-4.672-0.798-7.039c0-5.458,1.418-10.822,4.114-15.566l0,0
	c1.972,1.949,4.633,3.041,7.407,3.041c0.558,0,1.116-0.045,1.668-0.133l0,0c-0.459,1.465-1.094,2.869-1.886,4.186l0,0
	c-0.091,0.154-0.141,0.332-0.141,0.512c0,0.552,0.447,0.998,0.996,0.998c0.115,0,0.231-0.021,0.342-0.063l0,0
	c3.162-1.148,5.854-3.322,7.64-6.176l0,0c1.91,4.139,2.897,8.643,2.897,13.201c0,2.367-0.265,4.73-0.796,7.039l0,0
	c-3.441,1.227-7.069,1.853-10.722,1.853C96.213,85.361,92.588,84.735,89.146,83.509L89.146,83.509z"/>
<path fill="#29D7FF" d="M51.001,71.66c-0.966-0.132-1.924-0.308-2.872-0.525l0,0c-0.619-3.83-1.896-7.523-3.777-10.917h-0.001
	c0.829-1.135,1.444-2.41,1.815-3.766l0,0c0.742-0.899,1.147-2.03,1.147-3.197l0,0c0-1.014-0.307-2.006-0.881-2.842l0,0
	c0.438-0.999,0.928-1.975,1.467-2.923l0,0c1.972,1.948,4.634,3.043,7.404,3.043c2.774,0,5.436-1.095,7.406-3.043l0,0
	c1.711,3.011,2.914,6.282,3.56,9.685v-0.001h-9.217c-3.341,0-6.053,2.712-6.053,6.052l0,0L51.001,71.66L51.001,71.66z"/>
<path fill="#29D7FF" d="M73,109.937c0,3.059-2.482,5.541-5.543,5.541s-5.545-2.482-5.545-5.541l0,0c0-3.061,2.484-5.543,5.545-5.543
	S73,106.876,73,109.937L73,109.937z"/>
<path fill="#29D7FF" d="M45.767,83.509c-3.441,1.227-7.069,1.853-10.723,1.853c-3.654,0-7.282-0.626-10.725-1.853l0,0
	c-0.528-2.309-0.796-4.672-0.796-7.039c0-5.458,1.417-10.822,4.112-15.566l0,0c1.973,1.949,4.633,3.041,7.407,3.041
	c2.771,0,5.435-1.092,7.404-3.041l0,0c2.697,4.744,4.113,10.108,4.113,15.566C46.563,78.837,46.297,81.201,45.767,83.509
	L45.767,83.509z"/>
<polyline fill="none" stroke="#000000" stroke-linecap="round" stroke-linejoin="round" stroke-miterlimit="10" points="
	31.237,113.062 27.144,113.062 27.144,106.681 31.237,106.681 "/>
<line fill="none" stroke="#000000" stroke-linecap="round" stroke-linejoin="round" stroke-miterlimit="10" x1="27.144" y1="109.556" x2="30.027" y2="109.556"/>
<line fill="none" stroke="#000000" stroke-linecap="round" stroke-linejoin="round" stroke-miterlimit="10" x1="38.61" y1="106.705" x2="43.71" y2="106.705"/>
<line fill="none" stroke="#000000" stroke-linecap="round" stroke-linejoin="round" stroke-miterlimit="10" x1="41.16" y1="106.705" x2="41.16" y2="113.062"/>
<path fill="none" stroke="#000000" stroke-linecap="round" stroke-linejoin="round" stroke-miterlimit="10" d="M36.913,107.574
	c-0.082-0.16-0.202-0.3-0.35-0.404l0,0c-0.443-0.316-0.976-0.488-1.521-0.488c-0.544,0-1.075,0.172-1.519,0.488h-0.002
	c-0.297,0.213-0.475,0.559-0.475,0.926s0.178,0.711,0.475,0.926h0.002c0.313,0.225,0.672,0.377,1.051,0.445l0,0l1.039,0.188
	c0.465,0.085,0.902,0.271,1.285,0.546l0,0c0.365,0.262,0.581,0.684,0.581,1.133s-0.216,0.869-0.581,1.131l0,0
	c-0.542,0.389-1.19,0.598-1.856,0.598c-0.665,0-1.315-0.209-1.855-0.598l0,0c-0.181-0.129-0.326-0.299-0.428-0.494l0,0"/>
<line fill="none" stroke="#000000" stroke-linecap="round" stroke-linejoin="round" stroke-miterlimit="10" x1="44.112" y1="113.062" x2="44.112" y2="112.845"/>
<polyline fill="none" stroke="#000000" stroke-width="2" stroke-linecap="round" stroke-linejoin="round" stroke-miterlimit="10" points="
	301.803,55.568 294.082,55.568 294.082,43.546 301.803,43.546 "/>
<line fill="none" stroke="#000000" stroke-width="2" stroke-linecap="round" stroke-linejoin="round" stroke-miterlimit="10" x1="294.082" y1="48.962" x2="299.523" y2="48.962"/>
<polyline fill="none" stroke="#000000" stroke-width="2" stroke-linecap="round" stroke-linejoin="round" stroke-miterlimit="10" points="
	265.059,55.568 257.348,55.568 257.348,43.546 265.059,43.546 "/>
<line fill="none" stroke="#000000" stroke-width="2" stroke-linecap="round" stroke-linejoin="round" stroke-miterlimit="10" x1="257.348" y1="48.962" x2="262.779" y2="48.962"/>
<polyline fill="none" stroke="#000000" stroke-width="2" stroke-linecap="round" stroke-linejoin="round" stroke-miterlimit="10" points="
	230.797,55.568 230.797,43.546 239.217,55.568 239.217,43.546 "/>
<polyline fill="none" stroke="#000000" stroke-width="2" stroke-linecap="round" stroke-linejoin="round" stroke-miterlimit="10" points="
	244.119,55.568 244.119,43.546 252.537,55.568 252.537,43.546 "/>
<line fill="none" stroke="#000000" stroke-width="2" stroke-linecap="round" stroke-linejoin="round" stroke-miterlimit="10" x1="280.129" y1="43.588" x2="289.74" y2="43.588"/>
<line fill="none" stroke="#000000" stroke-width="2" stroke-linecap="round" stroke-linejoin="round" stroke-miterlimit="10" x1="284.936" y1="43.588" x2="284.936" y2="55.568"/>
<path fill="none" stroke="#000000" stroke-width="2" stroke-linecap="round" stroke-linejoin="round" stroke-miterlimit="10" d="
	M213.211,45.285c-0.819-1.094-2.103-1.739-3.471-1.739s-2.653,0.646-3.474,1.739l0,0c-0.922,1.23-1.42,2.734-1.42,4.272
	c0,1.541,0.498,3.036,1.42,4.269l0,0c0.819,1.101,2.104,1.742,3.474,1.742c1.368,0,2.65-0.642,3.471-1.742l0,0"/>
<path fill="none" stroke="#000000" stroke-width="2" stroke-linecap="round" stroke-linejoin="round" stroke-miterlimit="10" d="
	M276.891,45.285c-0.818-1.094-2.104-1.739-3.473-1.739s-2.656,0.646-3.474,1.739l0,0c-0.922,1.23-1.42,2.734-1.42,4.272
	c0,1.541,0.498,3.036,1.42,4.269l0,0c0.816,1.101,2.105,1.742,3.474,1.742s2.653-0.642,3.473-1.742l0,0"/>
<path fill="none" stroke="#000000" stroke-width="2" stroke-linecap="round" stroke-linejoin="round" stroke-miterlimit="10" d="
	M309.979,43.546h-3.559v12.022h3.559c1.381,0,2.67-0.693,3.428-1.851l0,0c0.818-1.237,1.246-2.683,1.246-4.16
	c0-1.481-0.428-2.928-1.246-4.161l0,0C312.648,44.239,311.359,43.546,309.979,43.546L309.979,43.546z"/>
<path fill="none" stroke="#000000" stroke-width="2" stroke-linecap="round" stroke-linejoin="round" stroke-miterlimit="10" d="
	M225.432,45.343c-0.793-1.13-2.082-1.797-3.458-1.797c-1.373,0-2.66,0.667-3.456,1.797l0,0c-0.859,1.235-1.332,2.706-1.332,4.215
	c0,1.509,0.473,2.981,1.332,4.216l0,0c0.796,1.123,2.083,1.795,3.456,1.795c1.376,0,2.665-0.672,3.458-1.795l0,0
	c0.863-1.234,1.33-2.707,1.33-4.216C226.762,48.049,226.295,46.578,225.432,45.343L225.432,45.343z"/>
<line fill="none" stroke="#000000" stroke-width="2" stroke-linecap="round" stroke-linejoin="round" stroke-miterlimit="10" x1="405.484" y1="55.568" x2="405.484" y2="43.588"/>
<polyline fill="none" stroke="#000000" stroke-width="2" stroke-linecap="round" stroke-linejoin="round" stroke-miterlimit="10" points="
	350.829,55.568 350.829,43.546 355.646,51.629 360.459,43.546 360.459,55.568 "/>
<polyline fill="none" stroke="#000000" stroke-width="2" stroke-linecap="round" stroke-linejoin="round" stroke-miterlimit="10" points="
	365.295,55.568 365.295,43.546 370.102,51.629 374.913,43.546 374.913,55.568 "/>
<polyline fill="none" stroke="#000000" stroke-width="2" stroke-linecap="round" stroke-linejoin="round" stroke-miterlimit="10" points="
	392.081,55.568 392.081,43.546 400.506,55.568 400.506,43.546 "/>
<line fill="none" stroke="#000000" stroke-width="2" stroke-linecap="round" stroke-linejoin="round" stroke-miterlimit="10" x1="409.732" y1="43.588" x2="419.344" y2="43.588"/>
<line fill="none" stroke="#000000" stroke-width="2" stroke-linecap="round" stroke-linejoin="round" stroke-miterlimit="10" x1="414.534" y1="43.588" x2="414.534" y2="55.568"/>
<polyline fill="none" stroke="#000000" stroke-width="2" stroke-linecap="round" stroke-linejoin="round" stroke-miterlimit="10" points="
	423.021,43.522 427.825,50.135 432.637,43.522 "/>
<line fill="none" stroke="#000000" stroke-width="2" stroke-linecap="round" stroke-linejoin="round" stroke-miterlimit="10" x1="427.825" y1="55.568" x2="427.825" y2="50.135"/>
<path fill="none" stroke="#000000" stroke-width="2" stroke-linecap="round" stroke-linejoin="round" stroke-miterlimit="10" d="
	M387.698,43.546v7.866c0,2.298-1.869,4.156-4.157,4.156c-2.298,0-4.158-1.858-4.158-4.156l0,0v-7.866"/>
<path fill="none" stroke="#000000" stroke-width="2" stroke-linecap="round" stroke-linejoin="round" stroke-miterlimit="10" d="
	M333.105,45.285c-0.809-1.094-2.102-1.739-3.467-1.739s-2.654,0.646-3.472,1.739l0,0c-0.924,1.23-1.42,2.734-1.42,4.272
	c0,1.541,0.496,3.036,1.42,4.269l0,0c0.816,1.101,2.105,1.742,3.472,1.742s2.658-0.642,3.467-1.742l0,0"/>
<path fill="none" stroke="#000000" stroke-width="2" stroke-linecap="round" stroke-linejoin="round" stroke-miterlimit="10" d="
	M345.327,45.343c-0.786-1.13-2.077-1.797-3.45-1.797c-1.377,0-2.664,0.667-3.457,1.797l0,0c-0.869,1.235-1.332,2.706-1.332,4.215
	c0,1.509,0.463,2.981,1.332,4.216l0,0c0.793,1.123,2.08,1.795,3.457,1.795c1.373,0,2.664-0.672,3.45-1.795l0,0
	c0.869-1.234,1.33-2.707,1.33-4.216C346.657,48.049,346.197,46.578,345.327,45.343L345.327,45.343z"/>
<polyline fill="none" stroke="#000000" stroke-width="4" stroke-linecap="round" stroke-linejoin="round" stroke-miterlimit="10" points="
	431.868,84.119 418.456,84.119 418.456,63.219 431.868,63.219 "/>
<line fill="none" stroke="#000000" stroke-width="4" stroke-linecap="round" stroke-linejoin="round" stroke-miterlimit="10" x1="418.456" y1="72.634" x2="427.902" y2="72.634"/>
<polyline fill="none" stroke="#000000" stroke-width="4" stroke-linecap="round" stroke-linejoin="round" stroke-miterlimit="10" points="
	307.52,84.119 294.113,84.119 294.113,63.219 307.52,63.219 "/>
<line fill="none" stroke="#000000" stroke-width="4" stroke-linecap="round" stroke-linejoin="round" stroke-miterlimit="10" x1="294.113" y1="72.634" x2="303.557" y2="72.634"/>
<line fill="none" stroke="#000000" stroke-width="4" stroke-linecap="round" stroke-linejoin="round" stroke-miterlimit="10" x1="207.154" y1="63.29" x2="207.154" y2="84.119"/>
<line fill="none" stroke="#000000" stroke-width="4" stroke-linecap="round" stroke-linejoin="round" stroke-miterlimit="10" x1="221.442" y1="84.119" x2="221.442" y2="63.29"/>
<line fill="none" stroke="#000000" stroke-width="4" stroke-linecap="round" stroke-linejoin="round" stroke-miterlimit="10" x1="207.154" y1="72.494" x2="221.442" y2="72.494"/>
<line fill="none" stroke="#000000" stroke-width="4" stroke-linecap="round" stroke-linejoin="round" stroke-miterlimit="10" x1="378.221" y1="78.087" x2="388.389" y2="78.087"/>
<polyline fill="none" stroke="#000000" stroke-width="4" stroke-linecap="round" stroke-linejoin="round" stroke-miterlimit="10" points="
	374.977,84.119 383.342,63.219 391.704,84.119 "/>
<line fill="none" stroke="#000000" stroke-width="4" stroke-linecap="round" stroke-linejoin="round" stroke-miterlimit="10" x1="231.525" y1="78.087" x2="241.699" y2="78.087"/>
<polyline fill="none" stroke="#000000" stroke-width="4" stroke-linecap="round" stroke-linejoin="round" stroke-miterlimit="10" points="
	228.289,84.119 236.652,63.219 245.016,84.119 "/>
<line fill="none" stroke="#000000" stroke-width="4" stroke-linecap="round" stroke-linejoin="round" stroke-miterlimit="10" x1="329.163" y1="84.082" x2="323.834" y2="73.667"/>
<path fill="none" stroke="#000000" stroke-width="4" stroke-linecap="round" stroke-linejoin="round" stroke-miterlimit="10" d="
	M315.243,84.119v-20.9h8.591c2.881,0,5.227,2.344,5.227,5.223c0,2.886-2.346,5.226-5.227,5.226l0,0h-8.591"/>
<path fill="none" stroke="#000000" stroke-width="4" stroke-linecap="round" stroke-linejoin="round" stroke-miterlimit="10" d="
	M358.279,84.119v-20.9h8.594c2.886,0,5.224,2.344,5.224,5.223c0,2.886-2.338,5.226-5.224,5.226l0,0h-8.594"/>
<path fill="none" stroke="#000000" stroke-width="4" stroke-linecap="round" stroke-linejoin="round" stroke-miterlimit="10" d="
	M411.053,66.246c-1.422-1.907-3.656-3.027-6.035-3.027c-2.371,0-4.607,1.12-6.029,3.027l0,0c-1.604,2.142-2.471,4.744-2.471,7.422
	c0,2.682,0.865,5.283,2.471,7.426l0,0c1.422,1.902,3.658,3.025,6.029,3.025c2.379,0,4.613-1.123,6.035-3.025l0,0"/>
<path fill="none" stroke="#000000" stroke-width="4" stroke-linecap="round" stroke-linejoin="round" stroke-miterlimit="10" d="
	M264.359,66.246c-1.424-1.907-3.653-3.027-6.03-3.027c-2.375,0-4.609,1.12-6.031,3.027l0,0c-1.604,2.142-2.473,4.744-2.473,7.422
	c0,2.682,0.868,5.283,2.473,7.426l0,0c1.422,1.902,3.656,3.025,6.031,3.025c2.377,0,4.606-1.123,6.03-3.025l0,0"/>
<line fill="none" stroke="#000000" stroke-width="4" stroke-linecap="round" stroke-linejoin="round" stroke-miterlimit="10" x1="272.574" y1="63.29" x2="272.574" y2="84.119"/>
<line fill="none" stroke="#000000" stroke-width="4" stroke-linecap="round" stroke-linejoin="round" stroke-miterlimit="10" x1="272.574" y1="75.88" x2="286.133" y2="63.29"/>
<line fill="none" stroke="#000000" stroke-width="4" stroke-linecap="round" stroke-linejoin="round" stroke-miterlimit="10" x1="286.375" y1="84.119" x2="275.959" y2="72.735"/>
<path fill="none" stroke="#000000" stroke-width="4" stroke-linecap="round" stroke-linejoin="round" stroke-miterlimit="10" d="
	M349.577,66.148c-0.264-0.531-0.657-0.984-1.141-1.328l0,0c-1.451-1.043-3.191-1.602-4.979-1.602c-1.782,0-3.526,0.559-4.979,1.602
	h-0.004c-0.973,0.698-1.553,1.827-1.553,3.032c0,1.204,0.58,2.333,1.553,3.028h0.004c1.025,0.734,2.205,1.234,3.445,1.463l0,0
	l3.407,0.623c1.519,0.275,2.955,0.884,4.207,1.781l0,0c1.193,0.857,1.904,2.237,1.904,3.709c0,1.467-0.711,2.853-1.904,3.705l0,0
	c-1.771,1.271-3.899,1.955-6.082,1.955c-2.18,0-4.311-0.684-6.09-1.955l0,0c-0.58-0.422-1.059-0.98-1.396-1.623l0,0"/>
</svg>
