<?xml version="1.0" encoding="utf-8"?>
<!-- Generator: Adobe Illustrator 13.0.0, SVG Export Plug-In . SVG Version: 6.00 Build 14948)  -->
<!DOCTYPE svg PUBLIC "-//W3C//DTD SVG 1.1//EN" "http://www.w3.org/Graphics/SVG/1.1/DTD/svg11.dtd">
<svg version="1.1" id="Layer_1" xmlns="http://www.w3.org/2000/svg" xmlns:xlink="http://www.w3.org/1999/xlink" x="0px" y="0px"
	 width="32.007px" height="32px" viewBox="0 0 32.007 32" enable-background="new 0 0 32.007 32" xml:space="preserve">
<g>
	<path fill="#FFFFFF" d="M1.768,26.236V5.765c0-2.206,1.791-3.996,3.997-3.996l0,0h20.479c2.206,0,3.997,1.79,3.997,3.996l0,0
		v20.471c0,2.206-1.791,3.996-3.997,3.996l0,0H5.765C3.559,30.232,1.768,28.442,1.768,26.236L1.768,26.236z"/>
	<path d="M5.764,32C2.581,31.998,0,29.421,0,26.236l0,0V5.766C0,2.58,2.581,0.002,5.764,0l0,0h20.479
		c3.184,0.002,5.763,2.58,5.765,5.766l0,0v20.471c-0.002,3.185-2.581,5.762-5.765,5.764l0,0H5.764L5.764,32z M3.537,26.236
		c0.002,1.227,0.998,2.224,2.227,2.227l0,0h20.479c1.228-0.003,2.227-1,2.229-2.227l0,0V5.766c-0.002-1.229-1.001-2.225-2.229-2.229
		l0,0H5.764c-1.229,0.003-2.225,1-2.227,2.229l0,0V26.236L3.537,26.236z"/>
	<polygon points="10.854,25.434 15.216,16.19 10.84,16.19 14.552,7.117 20.474,7.117 16.736,13.815 20.898,13.815 	"/>
</g>
</svg>
