<?xml version="1.0" encoding="utf-8"?>
<!-- Generator: Adobe Illustrator 13.0.0, SVG Export Plug-In . SVG Version: 6.00 Build 14948)  -->
<!DOCTYPE svg PUBLIC "-//W3C//DTD SVG 1.1//EN" "http://www.w3.org/Graphics/SVG/1.1/DTD/svg11.dtd">
<svg version="1.1" id="Layer_1" xmlns="http://www.w3.org/2000/svg" xmlns:xlink="http://www.w3.org/1999/xlink" x="0px" y="0px"
	 width="32px" height="32px" viewBox="0 0 32 32" enable-background="new 0 0 32 32" xml:space="preserve">
<path d="M16,0C7.163,0,0,7.163,0,16c0,7.401,5.032,13.612,11.857,15.438V20.502H7.896v-4.571h3.961V12.55
	c-0.031-3.931,2.377-6.063,5.881-6.063c1.676,0,3.108,0.122,3.534,0.183v4.083h-2.438c-1.888,0-2.254,0.915-2.254,2.225v2.955h4.54
	l-0.579,4.571H16.58v11.469C25.146,31.663,32,24.641,32,16C32,7.163,24.837,0,16,0z"/>
</svg>
