<?xml version="1.0" encoding="utf-8"?>
<!-- Generator: Adobe Illustrator 13.0.0, SVG Export Plug-In . SVG Version: 6.00 Build 14948)  -->
<!DOCTYPE svg PUBLIC "-//W3C//DTD SVG 1.1//EN" "http://www.w3.org/Graphics/SVG/1.1/DTD/svg11.dtd">
<svg version="1.1" id="Layer_1" xmlns="http://www.w3.org/2000/svg" xmlns:xlink="http://www.w3.org/1999/xlink" x="0px" y="0px"
	 width="32px" height="32px" viewBox="0 0 32 32" enable-background="new 0 0 32 32" xml:space="preserve">
<path d="M16,0C7.164,0,0,7.163,0,16c0,8.836,7.164,16,16,16c8.837,0,16-7.164,16-16C32,7.163,24.837,0,16,0z M24.868,12.519
	c0.008,0.185,0.012,0.371,0.012,0.557c0,5.693-4.334,12.261-12.261,12.261c-2.433,0-4.699-0.713-6.605-1.936
	c0.337,0.039,0.68,0.059,1.027,0.059c2.02,0,3.878-0.688,5.353-1.844c-1.886-0.035-3.477-1.281-4.026-2.994
	C8.63,18.672,8.901,18.7,9.178,18.7c0.394,0,0.774-0.053,1.136-0.152c-1.971-0.395-3.458-2.136-3.458-4.225
	c0-0.018,0-0.036,0.001-0.054c0.582,0.323,1.245,0.518,1.953,0.539c-1.158-0.771-1.918-2.092-1.918-3.588
	c0-0.789,0.213-1.528,0.584-2.165c2.125,2.607,5.301,4.322,8.882,4.502c-0.074-0.315-0.111-0.644-0.111-0.983
	c0-2.377,1.928-4.308,4.309-4.308c1.239,0,2.359,0.523,3.146,1.361c0.981-0.194,1.903-0.553,2.737-1.046
	c-0.322,1.005-1.006,1.85-1.896,2.385c0.872-0.104,1.702-0.337,2.475-0.681C26.44,11.149,25.71,11.908,24.868,12.519z"/>
</svg>
