<?xml version="1.0" encoding="utf-8"?>
<!-- Generator: Adobe Illustrator 13.0.0, SVG Export Plug-In . SVG Version: 6.00 Build 14948)  -->
<!DOCTYPE svg PUBLIC "-//W3C//DTD SVG 1.1//EN" "http://www.w3.org/Graphics/SVG/1.1/DTD/svg11.dtd">
<svg version="1.1" id="Layer_1" xmlns="http://www.w3.org/2000/svg" xmlns:xlink="http://www.w3.org/1999/xlink" x="0px" y="0px"
	 width="32px" height="32px" viewBox="0 0 32 32" enable-background="new 0 0 32 32" xml:space="preserve">
<path d="M16,0C7.155,0-0.009,7.163-0.009,16.008c0,7.084,4.583,13.067,10.946,15.188c0.8,0.141,1.101-0.34,1.101-0.76
	c0-0.381-0.02-1.641-0.02-2.982c-4.022,0.74-5.063-0.98-5.383-1.881c-0.181-0.459-0.961-1.881-1.642-2.262
	c-0.56-0.299-1.36-1.039-0.02-1.061c1.26-0.02,2.16,1.162,2.461,1.641c1.44,2.422,3.742,1.742,4.662,1.322
	c0.141-1.041,0.561-1.742,1.021-2.143c-3.562-0.4-7.283-1.779-7.283-7.904c0-1.74,0.62-3.181,1.641-4.302
	c-0.16-0.399-0.721-2.041,0.16-4.242c0,0,1.341-0.42,4.402,1.641c1.28-0.36,2.642-0.54,4.002-0.54c1.361,0,2.721,0.18,4.002,0.54
	c3.063-2.081,4.402-1.641,4.402-1.641c0.881,2.201,0.32,3.843,0.16,4.242c1.021,1.121,1.641,2.541,1.641,4.302
	c0,6.144-3.742,7.503-7.303,7.904c0.58,0.502,1.08,1.461,1.08,2.963c0,2.141-0.02,3.861-0.02,4.402c0,0.42,0.299,0.92,1.1,0.76
	c6.324-2.121,10.906-8.125,10.906-15.188C32.009,7.163,24.845,0,16,0z"/>
</svg>
