<?xml version="1.0" encoding="utf-8"?>
<!-- Generator: Adobe Illustrator 13.0.0, SVG Export Plug-In . SVG Version: 6.00 Build 14948)  -->
<!DOCTYPE svg PUBLIC "-//W3C//DTD SVG 1.1//EN" "http://www.w3.org/Graphics/SVG/1.1/DTD/svg11.dtd">
<svg version="1.1" id="Layer_1" xmlns="http://www.w3.org/2000/svg" xmlns:xlink="http://www.w3.org/1999/xlink" x="0px" y="0px"
	 width="32px" height="32px" viewBox="0 0 32 32" enable-background="new 0 0 32 32" xml:space="preserve">
<path d="M24.557,9.527c-0.176-0.478-0.456-0.908-0.82-1.263C23.381,7.9,22.95,7.62,22.474,7.443
	c-0.388-0.15-0.968-0.328-2.038-0.377c-1.158-0.053-1.504-0.064-4.435-0.064c-2.932,0-3.277,0.012-4.435,0.064
	c-1.071,0.049-1.651,0.227-2.038,0.377C9.051,7.62,8.62,7.9,8.267,8.265C7.902,8.618,7.62,9.05,7.444,9.527
	c-0.149,0.386-0.329,0.968-0.377,2.037c-0.053,1.157-0.064,1.505-0.064,4.435c0,2.931,0.012,3.279,0.064,4.435
	c0.048,1.07,0.228,1.652,0.377,2.039c0.176,0.477,0.458,0.908,0.822,1.262c0.354,0.363,0.784,0.645,1.262,0.82
	c0.387,0.15,0.967,0.328,2.038,0.377c1.157,0.055,1.503,0.064,4.435,0.064c2.931,0,3.277-0.01,4.435-0.064
	c1.07-0.049,1.652-0.227,2.038-0.377c0.957-0.369,1.714-1.125,2.083-2.082c0.15-0.387,0.329-0.969,0.378-2.039
	c0.052-1.156,0.063-1.504,0.063-4.435c0-2.93-0.012-3.277-0.063-4.435C24.886,10.495,24.707,9.913,24.557,9.527z M16.001,21.635
	c-3.113,0-5.637-2.523-5.637-5.636c0-3.112,2.523-5.635,5.637-5.635c3.112,0,5.636,2.522,5.636,5.635
	C21.637,19.112,19.113,21.635,16.001,21.635z M21.859,11.458c-0.728,0-1.317-0.59-1.317-1.316c0-0.729,0.59-1.317,1.317-1.317
	c0.727,0,1.317,0.589,1.317,1.317C23.177,10.868,22.586,11.458,21.859,11.458z M16,0C7.164,0,0,7.163,0,16c0,8.836,7.164,16,16,16
	c8.838,0,16-7.164,16-16C32,7.163,24.838,0,16,0z M26.91,20.524c-0.054,1.168-0.24,1.967-0.511,2.664
	c-0.569,1.475-1.735,2.641-3.209,3.211c-0.699,0.271-1.496,0.457-2.665,0.51c-1.17,0.053-1.544,0.066-4.524,0.066
	c-2.981,0-3.354-0.014-4.525-0.066c-1.168-0.053-1.966-0.238-2.664-0.51c-0.731-0.275-1.396-0.709-1.943-1.268
	c-0.559-0.547-0.991-1.211-1.266-1.943c-0.271-0.697-0.457-1.496-0.511-2.664c-0.054-1.17-0.066-1.545-0.066-4.525
	c0-2.979,0.013-3.354,0.066-4.523c0.054-1.169,0.239-1.968,0.51-2.665C5.877,8.078,6.31,7.414,6.867,6.867
	C7.416,6.309,8.08,5.876,8.812,5.601c0.698-0.271,1.496-0.457,2.664-0.51c1.17-0.054,1.544-0.066,4.525-0.066
	c2.98,0,3.354,0.013,4.524,0.066c1.169,0.053,1.966,0.238,2.664,0.509c0.732,0.276,1.396,0.709,1.944,1.268
	c0.559,0.547,0.99,1.211,1.266,1.943c0.271,0.697,0.457,1.496,0.511,2.665c0.053,1.17,0.064,1.544,0.064,4.523
	C26.975,18.979,26.963,19.354,26.91,20.524z M16.001,12.342c-2.021,0-3.659,1.638-3.659,3.657c0,2.021,1.638,3.658,3.659,3.658
	c2.021,0,3.658-1.637,3.658-3.658C19.659,13.979,18.021,12.342,16.001,12.342z"/>
</svg>
